<?xml version="1.0" encoding="UTF-8" standalone="no"?>
<!DOCTYPE svg PUBLIC "-//W3C//DTD SVG 1.1//EN" "http://www.w3.org/Graphics/SVG/1.1/DTD/svg11.dtd">
<svg width="100%" height="100%" viewBox="0 0 72 64" version="1.1" xmlns="http://www.w3.org/2000/svg" xmlns:xlink="http://www.w3.org/1999/xlink" xml:space="preserve" xmlns:serif="http://www.serif.com/" style="fill-rule:evenodd;clip-rule:evenodd;stroke-linejoin:round;stroke-miterlimit:2;">
    <g transform="matrix(1,0,0,1,-24.4906,-229.363)">
        <g transform="matrix(1,0,0,1,-314.509,193.15)">
            <g id="Layer0_0_FILL" transform="matrix(1.08767,0,0,1.08767,-711.693,-732.356)">
                <path d="M971.85,718C967.95,718.067 966,720.067 966,724L966,748C966,751.933 967.95,753.933 971.85,754C985.283,755.1 998.733,755.1 1012.2,754C1016.07,753.933 1018,751.933 1018,748L1018,724C1018,720.067 1016.05,718.067 1012.15,718C998.717,717 985.283,717 971.85,718M968,748L968,724C968,721.333 969.333,720 972,720C985.333,719 998.667,719 1012,720C1014.67,720 1016,721.333 1016,724L1016,748C1016,750.667 1014.67,752 1012,752C998.667,753.1 985.333,753.1 972,752C969.333,752 968,750.667 968,748Z" style="fill:rgb(31,138,76);fill-rule:nonzero;"/>
                <path d="M979.15,748.1L979.15,748C979.117,747.667 978.983,747.383 978.75,747.15C978.517,746.917 978.217,746.8 977.85,746.8L974.2,746.8C973.833,746.8 973.517,746.917 973.25,747.15C973.05,747.383 972.933,747.667 972.9,748L972.9,748.15C972.9,748.517 973.017,748.817 973.25,749.05C973.517,749.317 973.833,749.45 974.2,749.45L977.85,749.45C978.217,749.45 978.517,749.317 978.75,749.05C979.017,748.817 979.15,748.517 979.15,748.15L979.15,748.1M982.2,749.45L985.85,749.45C986.217,749.45 986.517,749.317 986.75,749.05C987.017,748.817 987.15,748.517 987.15,748.15L987.15,748C987.117,747.667 986.983,747.383 986.75,747.15C986.517,746.917 986.217,746.8 985.85,746.8L982.2,746.8C981.833,746.8 981.517,746.917 981.25,747.15C981.05,747.383 980.933,747.667 980.9,748L980.9,748.15C980.9,748.517 981.017,748.817 981.25,749.05C981.517,749.317 981.833,749.45 982.2,749.45Z" style="fill:rgb(153,153,153);fill-rule:nonzero;"/>
                <path d="M985.85,749.45L982.2,749.45C981.833,749.45 981.517,749.317 981.25,749.05C981.017,748.817 980.9,748.517 980.9,748.15L980.9,748L979.15,748L979.15,748.15C979.15,748.517 979.017,748.817 978.75,749.05C978.517,749.317 978.217,749.45 977.85,749.45L974.2,749.45C973.833,749.45 973.517,749.317 973.25,749.05C973.017,748.817 972.9,748.517 972.9,748.15L972.9,748L968,748C968,750.667 969.333,752 972,752C985.333,753.1 998.667,753.1 1012,752C1014.67,752 1016,750.667 1016,748L987.15,748L987.15,748.15C987.15,748.517 987.017,748.817 986.75,749.05C986.517,749.317 986.217,749.45 985.85,749.45M1012,720C998.667,719 985.333,719 972,720C969.333,720 968,721.333 968,724L1016,724C1016,721.333 1014.67,720 1012,720Z" style="fill:rgb(43,194,107);fill-rule:nonzero;"/>
                <path d="M968,724L968,748L972.9,748C972.933,747.667 973.05,747.383 973.25,747.15C973.517,746.917 973.833,746.8 974.2,746.8L977.85,746.8C978.217,746.8 978.517,746.917 978.75,747.15C978.983,747.383 979.117,747.667 979.15,748L980.9,748C980.933,747.667 981.05,747.383 981.25,747.15C981.517,746.917 981.833,746.8 982.2,746.8L985.85,746.8C986.217,746.8 986.517,746.917 986.75,747.15C986.983,747.383 987.117,747.667 987.15,748L1016,748L1016,724L968,724M1012.1,728C1012.1,728.933 1011.77,729.717 1011.1,730.35C1010.47,731.017 1009.68,731.35 1008.75,731.35C1007.82,731.35 1007.02,731.017 1006.35,730.35C1005.72,729.717 1005.4,728.933 1005.4,728C1005.4,727.067 1005.72,726.267 1006.35,725.6C1007.02,724.967 1007.82,724.65 1008.75,724.65C1009.68,724.65 1010.47,724.967 1011.1,725.6C1011.77,726.267 1012.1,727.067 1012.1,728Z" style="fill:rgb(46,204,113);fill-rule:nonzero;"/>
                <path d="M1011.1,730.35C1011.77,729.717 1012.1,728.933 1012.1,728C1012.1,727.067 1011.77,726.267 1011.1,725.6C1010.47,724.967 1009.68,724.65 1008.75,724.65C1007.82,724.65 1007.02,724.967 1006.35,725.6C1005.72,726.267 1005.4,727.067 1005.4,728C1005.4,728.933 1005.72,729.717 1006.35,730.35C1007.02,731.017 1007.82,731.35 1008.75,731.35C1009.68,731.35 1010.47,731.017 1011.1,730.35Z" style="fill:rgb(41,187,102);fill-rule:nonzero;"/>
            </g>
            <g id="Layer0_291_FILL" transform="matrix(1.20338,0,0,1.20338,-818.858,-894.494)">
                <path d="M1011,799L1011,797L998.55,797C998.45,796.633 998.35,796.283 998.25,795.95C997.417,793.317 995.667,792 993,792L981,792C978.333,792 977,793.333 977,796L977,804C977,806.667 978.333,808 981,808L993,808C995.467,808 997.1,807 997.9,805C997.967,804.833 998.033,804.65 998.1,804.45C998.267,803.95 998.4,803.467 998.5,803L998.85,801C998.883,800.333 998.883,799.667 998.85,799L1011,799M995.3,797.55C995.8,799.183 995.767,800.883 995.2,802.65C994.767,804.083 993.75,804.8 992.15,804.8L986.5,804.8C986.267,804.8 986.067,804.783 985.9,804.75C984.733,804.55 984.15,803.767 984.15,802.4L984.15,797.6C984.15,796.233 984.733,795.45 985.9,795.25C986.067,795.217 986.267,795.2 986.5,795.2L992.15,795.2C993.75,795.2 994.8,795.983 995.3,797.55Z" style="fill:rgb(46,204,113);fill-rule:nonzero;"/>
                <path d="M995.2,802.65C995.767,800.883 995.8,799.183 995.3,797.55C994.8,795.983 993.75,795.2 992.15,795.2L986.5,795.2C986.267,795.2 986.067,795.217 985.9,795.25C984.733,795.45 984.15,796.233 984.15,797.6L984.15,802.4C984.15,803.767 984.733,804.55 985.9,804.75C986.067,804.783 986.267,804.8 986.5,804.8L992.15,804.8C993.75,804.8 994.767,804.083 995.2,802.65M1006,803L1006,801L998.85,801L998.5,803L1006,803Z" style="fill:rgb(204,204,204);fill-rule:nonzero;"/>
                <path d="M1008,801L1009.7,801L1011,799L998.85,799C998.883,799.667 998.883,800.333 998.85,801L1008,801M993,790L981,790C977,790 975,792 975,796L975,804C975,808 977,810 981,810L993,810C996.667,809.967 999,808.317 1000,805.05L1000,805.1C1000,805.066 1000.02,805.032 1000.05,805L997.9,805C997.1,807 995.467,808 993,808L981,808C978.333,808 977,806.667 977,804L977,796C977,793.333 978.333,792 981,792L993,792C995.667,792 997.417,793.317 998.25,795.95C998.35,796.283 998.45,796.633 998.55,797L1011,797L1010.3,795L1000.05,795C998.85,791.667 996.5,790 993,790Z" style="fill:rgb(31,138,76);fill-rule:nonzero;"/>
                <path d="M1006,801L1006,803L998.5,803C998.4,803.467 998.267,803.95 998.1,804.45C998.033,804.65 997.967,804.833 997.9,805L1006,805C1006.57,805 1007.05,804.817 1007.45,804.45C1007.82,804.05 1008,803.567 1008,803L1008,801L1006,801M1019.9,800.75L1020,796L1012.75,795.55L1011,797L1011,799L1013,801L1019.9,800.75Z" style="fill:rgb(153,153,153);fill-rule:nonzero;"/>
                <path d="M1021.5,794.65C1021.13,794.25 1020.68,794.033 1020.15,794L1012.9,793.55C1012.37,793.517 1011.9,793.667 1011.5,794L1010.3,795L1011,797L1012.75,795.55L1020,796L1019.9,800.75L1013,801L1011,799L1009.7,801L1010.15,801L1011.6,802.45C1011.8,802.617 1012.03,802.75 1012.3,802.85C1012.53,802.95 1012.8,803 1013.1,803L1020,802.75C1020.5,802.717 1020.95,802.517 1021.35,802.15C1021.72,801.783 1021.9,801.333 1021.9,800.8L1022,796.05C1022,795.517 1021.83,795.05 1021.5,794.65Z" style="fill:rgb(116,116,116);fill-rule:nonzero;"/>
            </g>
        </g>
    </g>
</svg>
