<?xml version="1.0" encoding="UTF-8" standalone="no"?>
<!DOCTYPE svg PUBLIC "-//W3C//DTD SVG 1.1//EN" "http://www.w3.org/Graphics/SVG/1.1/DTD/svg11.dtd">
<svg width="100%" height="100%" viewBox="0 0 68 96" version="1.1" xmlns="http://www.w3.org/2000/svg" xmlns:xlink="http://www.w3.org/1999/xlink" xml:space="preserve" xmlns:serif="http://www.serif.com/" style="fill-rule:evenodd;clip-rule:evenodd;stroke-linejoin:round;stroke-miterlimit:2;">
    <g transform="matrix(1,0,0,1,-447.485,-125.87)">
        <g id="Layer0_293_FILL" transform="matrix(1.322,0,0,1.322,-1002.75,-875.151)">
            <path d="M1107.35,791.05L1107.35,791C1107.02,790.3 1106.62,789.85 1106.15,789.65C1105.82,789.45 1105.47,789.35 1105.1,789.35L1101.05,789.35C1100.48,789.35 1100.02,789.55 1099.65,789.95C1099.25,790.317 1099.05,790.783 1099.05,791.35L1099.05,798.6C1098.88,798.633 1098.73,798.667 1098.6,798.7C1098.13,798.8 1097.75,799.033 1097.45,799.4C1097.15,799.767 1097,800.183 1097,800.65C1097,801.117 1097.15,801.55 1097.45,801.95C1097.75,802.283 1098.13,802.5 1098.6,802.6C1098.73,802.633 1098.88,802.667 1099.05,802.7L1099.05,809.9C1099.05,810.467 1099.25,810.95 1099.65,811.35C1100.02,811.717 1100.48,811.9 1101.05,811.9L1105.1,811.9C1105.37,811.9 1105.62,811.85 1105.85,811.75C1106.42,811.617 1106.92,811.117 1107.35,810.25C1107.38,810.217 1107.4,810.183 1107.4,810.15C1107.9,809.15 1108.27,807.133 1108.5,804.1C1108.7,804.1 1108.93,804.117 1109.2,804.15C1109.93,804.25 1110.78,804.35 1111.75,804.45C1113.68,804.65 1115.85,804.967 1118.25,805.4L1120.4,826.25C1120.4,826.317 1120.42,826.383 1120.45,826.45C1120.88,828.583 1121.95,829.517 1123.65,829.25L1127.1,829.25C1128.17,829.35 1128.98,829.067 1129.55,828.4C1130.08,827.933 1130.38,827.2 1130.45,826.2L1130.45,805.85C1130.98,805.817 1131.5,805.783 1132,805.75L1132.05,805.75C1132.72,805.683 1133.37,805.617 1134,805.55L1134.1,805.55C1135.63,805.283 1136.88,804.917 1137.85,804.45C1138.32,804.25 1138.72,804.017 1139.05,803.75C1140.25,803.483 1141.23,802.867 1142,801.9C1142.3,801.533 1142.45,801.117 1142.45,800.65C1142.45,800.183 1142.3,799.767 1142,799.4C1141.27,798.467 1140.3,797.85 1139.1,797.55C1138.73,797.283 1138.32,797.05 1137.85,796.85C1136.88,796.383 1135.62,796.033 1134.05,795.8C1133.42,795.667 1132.75,795.583 1132.05,795.55C1131.55,795.517 1131.02,795.483 1130.45,795.45L1130.45,775.05C1130.38,774.05 1130.08,773.333 1129.55,772.9C1128.98,772.233 1128.17,771.95 1127.1,772.05L1123.65,772.05C1121.95,771.817 1120.88,772.733 1120.45,774.8C1120.42,774.867 1120.4,774.933 1120.4,775L1118.25,795.95C1115.85,796.35 1113.68,796.65 1111.75,796.85C1110.78,796.95 1109.93,797.05 1109.2,797.15C1108.93,797.183 1108.7,797.217 1108.5,797.25C1108.27,794.083 1107.88,792.017 1107.35,791.05Z" style="fill-opacity:0.2;fill-rule:nonzero;"/>
        </g>
        <g id="Layer0_292_FILL" transform="matrix(1.322,0,0,1.322,-994.833,-810.125)">
            <path d="M1123.65,708.05C1121.95,707.817 1120.88,708.733 1120.45,710.8C1120.42,710.867 1120.4,710.933 1120.4,711L1118.25,731.95C1115.85,732.35 1113.68,732.65 1111.75,732.85C1110.78,732.95 1109.93,733.05 1109.2,733.15C1108.93,733.183 1108.7,733.217 1108.5,733.25C1108.27,730.083 1107.88,728.017 1107.35,727.05L1107.35,727C1107.02,726.3 1106.62,725.85 1106.15,725.65C1105.82,725.45 1105.47,725.35 1105.1,725.35L1101.05,725.35C1100.48,725.35 1100.02,725.55 1099.65,725.95C1099.25,726.317 1099.05,726.783 1099.05,727.35L1099.05,734.6C1098.88,734.633 1098.73,734.667 1098.6,734.7C1098.13,734.8 1097.75,735.033 1097.45,735.4C1097.15,735.767 1097,736.183 1097,736.65C1097,737.117 1097.15,737.55 1097.45,737.95C1097.75,738.283 1098.13,738.5 1098.6,738.6C1098.73,738.633 1098.88,738.667 1099.05,738.7L1099.05,745.9C1099.05,746.467 1099.25,746.95 1099.65,747.35C1100.02,747.717 1100.48,747.9 1101.05,747.9L1105.1,747.9C1105.37,747.9 1105.62,747.85 1105.85,747.75C1106.42,747.617 1106.92,747.117 1107.35,746.25C1107.38,746.217 1107.4,746.183 1107.4,746.15C1107.9,745.15 1108.27,743.133 1108.5,740.1C1108.7,740.1 1108.93,740.117 1109.2,740.15C1109.93,740.25 1110.78,740.35 1111.75,740.45C1113.68,740.65 1115.85,740.967 1118.25,741.4L1120.4,762.25C1120.4,762.317 1120.42,762.383 1120.45,762.45C1120.88,764.583 1121.95,765.517 1123.65,765.25L1127.1,765.25C1128.17,765.35 1128.98,765.067 1129.55,764.4C1130.08,763.933 1130.38,763.2 1130.45,762.2L1130.45,741.85C1130.98,741.817 1131.5,741.783 1132,741.75L1132.05,741.75C1132.72,741.683 1133.37,741.617 1134,741.55L1134.1,741.55C1135.63,741.283 1136.88,740.917 1137.85,740.45C1138.32,740.25 1138.72,740.017 1139.05,739.75C1140.25,739.483 1141.23,738.867 1142,737.9C1142.3,737.533 1142.45,737.117 1142.45,736.65C1142.45,736.183 1142.3,735.767 1142,735.4C1141.27,734.467 1140.3,733.85 1139.1,733.55C1138.73,733.283 1138.32,733.05 1137.85,732.85C1136.88,732.383 1135.62,732.033 1134.05,731.8C1133.42,731.667 1132.75,731.583 1132.05,731.55C1131.55,731.517 1131.02,731.483 1130.45,731.45L1130.45,711.05C1130.38,710.05 1130.08,709.333 1129.55,708.9C1128.98,708.233 1128.17,707.95 1127.1,708.05L1123.65,708.05M1122.4,711.2C1122.57,710.4 1122.95,710.017 1123.55,710.05L1127.3,710.05C1128,709.983 1128.38,710.367 1128.45,711.2L1128.45,733.4C1129.68,733.4 1130.82,733.45 1131.85,733.55C1132.52,733.583 1133.15,733.65 1133.75,733.75C1135.65,734.05 1137.02,734.517 1137.85,735.15C1137.95,735.217 1138.05,735.3 1138.15,735.4C1139.12,735.533 1139.88,735.95 1140.45,736.65C1139.88,737.35 1139.12,737.75 1138.15,737.85C1138.05,737.95 1137.95,738.033 1137.85,738.1C1137.02,738.733 1135.65,739.217 1133.75,739.55C1133.15,739.617 1132.52,739.683 1131.85,739.75C1130.82,739.817 1129.68,739.867 1128.45,739.9L1128.45,762.05C1128.38,762.917 1128,763.317 1127.3,763.25L1123.55,763.25C1122.95,763.283 1122.57,762.883 1122.4,762.05L1121.25,750.9L1120.1,739.65C1117.07,739.117 1114.35,738.717 1111.95,738.45C1110.92,738.35 1110,738.25 1109.2,738.15C1108.13,738.017 1107.27,737.9 1106.6,737.8C1106.43,741.767 1106.08,744.283 1105.55,745.35C1105.42,745.65 1105.27,745.833 1105.1,745.9L1101.05,745.9L1101.05,737.05C1100.35,736.917 1099.67,736.783 1099,736.65C1099.67,736.517 1100.35,736.383 1101.05,736.25L1101.05,727.35L1105.1,727.35C1105.27,727.45 1105.42,727.633 1105.55,727.9C1106.08,729 1106.43,731.517 1106.6,735.45C1107.27,735.383 1108.13,735.283 1109.2,735.15C1110,735.05 1110.92,734.95 1111.95,734.85C1114.35,734.583 1117.07,734.183 1120.1,733.65L1121.25,722.4L1122.4,711.2Z" style="fill:rgb(31,138,76);fill-rule:nonzero;"/>
            <path d="M1138.15,735.4L1138.15,737.85C1139.12,737.75 1139.88,737.35 1140.45,736.65C1139.88,735.95 1139.12,735.533 1138.15,735.4M1105.1,745.9C1105.27,745.833 1105.42,745.65 1105.55,745.35L1101.05,745.35L1101.05,745.9L1105.1,745.9M1122.4,762.05C1122.57,762.883 1122.95,763.283 1123.55,763.25L1127.3,763.25C1128,763.317 1128.38,762.917 1128.45,762.05L1122.4,762.05M1133.75,733.75C1133.15,733.65 1132.52,733.583 1131.85,733.55C1132.55,734.25 1132.93,735.283 1133,736.65C1132.93,737.983 1132.55,739.017 1131.85,739.75C1132.52,739.683 1133.15,739.617 1133.75,739.55L1133.75,733.75M1105.55,727.9C1105.42,727.633 1105.27,727.45 1105.1,727.35L1101.05,727.35L1101.05,727.9L1105.55,727.9M1123.55,710.05C1122.95,710.017 1122.57,710.4 1122.4,711.2L1128.45,711.2C1128.38,710.367 1128,709.983 1127.3,710.05L1123.55,710.05Z" style="fill:rgb(153,153,153);fill-rule:nonzero;"/>
            <path d="M1128.45,739.9L1122.6,739.7L1123.55,750.9L1121.25,750.9L1122.4,762.05L1128.45,762.05L1128.45,739.9M1106.6,735.45C1106.43,731.517 1106.08,729 1105.55,727.9L1103.3,727.9L1103.3,735.85C1104.37,735.717 1105.47,735.583 1106.6,735.45M1106.6,737.8C1105.47,737.7 1104.37,737.567 1103.3,737.4L1103.3,745.35L1105.55,745.35C1106.08,744.283 1106.43,741.767 1106.6,737.8M1128.45,711.2L1122.4,711.2L1121.25,722.4L1123.55,722.4L1122.6,733.55L1128.45,733.4L1128.45,711.2Z" style="fill:rgb(41,187,102);fill-rule:nonzero;"/>
            <path d="M1133.75,733.75L1133.75,739.55C1135.65,739.217 1137.02,738.733 1137.85,738.1C1137.95,738.033 1138.05,737.95 1138.15,737.85L1138.15,735.4C1138.05,735.3 1137.95,735.217 1137.85,735.15C1137.02,734.517 1135.65,734.05 1133.75,733.75M1103.3,735.85C1102.57,735.983 1101.82,736.117 1101.05,736.25C1100.35,736.383 1099.67,736.517 1099,736.65C1099.67,736.783 1100.35,736.917 1101.05,737.05C1101.82,737.183 1102.57,737.3 1103.3,737.4C1104.37,737.567 1105.47,737.7 1106.6,737.8C1107.27,737.9 1108.13,738.017 1109.2,738.15C1110,738.25 1110.92,738.35 1111.95,738.45C1114.35,738.717 1117.07,739.117 1120.1,739.65L1122.6,739.7L1128.45,739.9C1129.68,739.867 1130.82,739.817 1131.85,739.75C1132.55,739.017 1132.93,737.983 1133,736.65C1132.93,735.283 1132.55,734.25 1131.85,733.55C1130.82,733.45 1129.68,733.4 1128.45,733.4L1122.6,733.55L1120.1,733.65C1117.07,734.183 1114.35,734.583 1111.95,734.85C1110.92,734.95 1110,735.05 1109.2,735.15C1108.13,735.283 1107.27,735.383 1106.6,735.45C1105.47,735.583 1104.37,735.717 1103.3,735.85Z" style="fill:rgb(46,204,113);fill-rule:nonzero;"/>
            <path d="M1122.6,739.7L1120.1,739.65L1121.25,750.9L1123.55,750.9L1122.6,739.7M1123.55,722.4L1121.25,722.4L1120.1,733.65L1122.6,733.55L1123.55,722.4M1103.3,737.4C1102.57,737.3 1101.82,737.183 1101.05,737.05L1101.05,745.35L1103.3,745.35L1103.3,737.4M1103.3,727.9L1101.05,727.9L1101.05,736.25C1101.82,736.117 1102.57,735.983 1103.3,735.85L1103.3,727.9Z" style="fill:rgb(37,173,94);fill-rule:nonzero;"/>
        </g>
    </g>
</svg>
