<?xml version="1.0" encoding="UTF-8" standalone="no"?>
<!DOCTYPE svg PUBLIC "-//W3C//DTD SVG 1.1//EN" "http://www.w3.org/Graphics/SVG/1.1/DTD/svg11.dtd">
<svg width="100%" height="100%" viewBox="0 0 64 64" version="1.1" xmlns="http://www.w3.org/2000/svg" xmlns:xlink="http://www.w3.org/1999/xlink" xml:space="preserve" xmlns:serif="http://www.serif.com/" style="fill-rule:evenodd;clip-rule:evenodd;stroke-linejoin:round;stroke-miterlimit:2;">
    <g transform="matrix(1,0,0,1,-24.4906,-229.363)">
        <g id="Layer0_289_MEMBER_1_FILL" transform="matrix(1.14197,0,0,1.14197,-1222.51,-506.044)">
            <path d="M1123.75,659.6C1122.75,658.733 1121.6,658.3 1120.3,658.3L1118.45,658.3C1117.18,658.3 1116.02,658.75 1114.95,659.65C1114.92,659.65 1114.9,659.667 1114.9,659.7C1113.97,660.567 1113.4,661.667 1113.2,663C1113.17,663.1 1113.15,663.2 1113.15,663.3L1112.65,667.5C1111.65,668.767 1111.15,670.233 1111.15,671.9L1111.15,672.4C1111.15,674.1 1111.67,675.617 1112.7,676.95L1113.2,680.9L1113.2,680.95C1113.37,682.25 1113.92,683.367 1114.85,684.3C1114.88,684.333 1114.92,684.367 1114.95,684.4C1116.02,685.267 1117.18,685.7 1118.45,685.7L1120.3,685.7C1121.6,685.7 1122.73,685.267 1123.7,684.4C1124.13,684 1124.5,683.583 1124.8,683.15C1125.23,682.45 1125.48,681.683 1125.55,680.85L1125.85,679.35C1125.98,678.683 1126.1,678.017 1126.2,677.35C1126.93,676.417 1127.43,675.383 1127.7,674.25C1129.27,672.483 1129.22,670.8 1127.55,669.2C1127.48,669.167 1127.45,669.133 1127.45,669.1L1127.4,669.1C1127.13,668.367 1126.77,667.7 1126.3,667.1C1126.17,666.267 1126.02,665.45 1125.85,664.65L1125.55,663.15C1125.48,662.317 1125.23,661.567 1124.8,660.9C1124.57,660.533 1124.3,660.2 1124,659.9C1123.93,659.8 1123.85,659.7 1123.75,659.6M1120.3,660.3C1121.1,660.3 1121.8,660.567 1122.4,661.1L1122.4,661.15C1123.1,661.75 1123.48,662.467 1123.55,663.3L1123.9,665.05C1124.1,665.983 1124.25,666.933 1124.35,667.9C1124.52,668.067 1124.67,668.25 1124.8,668.45C1125.2,669.017 1125.5,669.617 1125.7,670.25L1126.1,670.6C1126.9,671.4 1126.87,672.233 1126,673.1L1125.85,673.25C1125.72,674.217 1125.37,675.083 1124.8,675.85C1124.63,676.05 1124.47,676.25 1124.3,676.45C1124.2,677.317 1124.07,678.15 1123.9,678.95L1123.55,680.7C1123.48,681.533 1123.1,682.25 1122.4,682.85C1121.8,683.417 1121.1,683.7 1120.3,683.7L1118.45,683.7C1117.65,683.7 1116.92,683.417 1116.25,682.85C1115.65,682.25 1115.28,681.517 1115.15,680.65L1114.6,676.1C1113.63,675.033 1113.15,673.8 1113.15,672.4L1113.15,671.9C1113.15,670.533 1113.62,669.333 1114.55,668.3L1115.15,663.35L1115.15,663.3C1115.28,662.433 1115.65,661.717 1116.25,661.15C1116.92,660.583 1117.65,660.3 1118.45,660.3L1120.3,660.3Z" style="fill:rgb(145,98,52);fill-rule:nonzero;"/>
            <path d="M1124.3,676.45C1124.23,676.517 1124.18,676.567 1124.15,676.6C1123.15,677.6 1121.97,678.167 1120.6,678.3C1120.4,678.333 1120.22,678.35 1120.05,678.35C1118.12,678.35 1116.48,677.767 1115.15,676.6C1114.95,676.433 1114.77,676.267 1114.6,676.1L1115.15,680.65C1115.28,681.517 1115.65,682.25 1116.25,682.85C1116.92,683.417 1117.65,683.7 1118.45,683.7L1120.3,683.7C1121.1,683.7 1121.8,683.417 1122.4,682.85C1123.1,682.25 1123.48,681.533 1123.55,680.7L1123.9,678.95C1124.07,678.15 1124.2,677.317 1124.3,676.45M1122.4,661.1C1121.8,660.567 1121.1,660.3 1120.3,660.3L1118.45,660.3C1117.65,660.3 1116.92,660.583 1116.25,661.15C1115.65,661.717 1115.28,662.433 1115.15,663.3L1115.15,663.35L1114.55,668.3C1114.75,668.1 1114.95,667.9 1115.15,667.7C1116.48,666.533 1118.12,665.95 1120.05,665.95C1120.22,665.95 1120.4,665.983 1120.6,666.05C1121.97,666.15 1123.15,666.7 1124.15,667.7C1124.22,667.767 1124.28,667.833 1124.35,667.9C1124.25,666.933 1124.1,665.983 1123.9,665.05L1123.55,663.3C1123.48,662.467 1123.1,661.75 1122.4,661.15L1122.4,661.1Z" style="fill:rgb(205,140,74);fill-rule:nonzero;"/>
            <path d="M1120.1,666.85C1120.17,666.583 1120.33,666.317 1120.6,666.05C1120.4,665.983 1120.22,665.95 1120.05,665.95C1118.12,665.95 1116.48,666.533 1115.15,667.7C1114.95,667.9 1114.75,668.1 1114.55,668.3C1113.62,669.333 1113.15,670.533 1113.15,671.9L1113.15,672.4C1113.15,673.8 1113.63,675.033 1114.6,676.1C1114.77,676.267 1114.95,676.433 1115.15,676.6C1116.48,677.767 1118.12,678.35 1120.05,678.35C1120.22,678.35 1120.4,678.333 1120.6,678.3C1120.33,678.033 1120.17,677.75 1120.1,677.45C1120.07,677.283 1120.08,677.133 1120.15,677C1120.32,676.4 1120.95,675.85 1122.05,675.35C1122.92,674.983 1123.35,673.917 1123.35,672.15C1123.35,670.383 1122.92,669.333 1122.05,669C1120.95,668.467 1120.32,667.933 1120.15,667.4C1120.08,667.233 1120.07,667.05 1120.1,666.85Z" style="fill:rgb(177,121,64);fill-rule:nonzero;"/>
            <path d="M1120.6,666.05C1120.33,666.317 1120.17,666.583 1120.1,666.85C1120.07,667.05 1120.08,667.233 1120.15,667.4C1120.32,667.933 1120.95,668.467 1122.05,669C1122.92,669.333 1123.35,670.383 1123.35,672.15C1123.35,673.917 1122.92,674.983 1122.05,675.35C1120.95,675.85 1120.32,676.4 1120.15,677C1120.08,677.133 1120.07,677.283 1120.1,677.45C1120.17,677.75 1120.33,678.033 1120.6,678.3C1121.97,678.167 1123.15,677.6 1124.15,676.6C1124.18,676.567 1124.23,676.517 1124.3,676.45C1124.47,676.25 1124.63,676.05 1124.8,675.85C1125.37,675.083 1125.72,674.217 1125.85,673.25L1126,673.1C1126.87,672.233 1126.9,671.4 1126.1,670.6L1125.7,670.25C1125.5,669.617 1125.2,669.017 1124.8,668.45C1124.67,668.25 1124.52,668.067 1124.35,667.9C1124.28,667.833 1124.22,667.767 1124.15,667.7C1123.15,666.7 1121.97,666.15 1120.6,666.05Z" style="fill:rgb(42,187,103);fill-rule:nonzero;"/>
        </g>
    </g>
</svg>
