<?xml version="1.0" encoding="UTF-8" standalone="no"?>
<!DOCTYPE svg PUBLIC "-//W3C//DTD SVG 1.1//EN" "http://www.w3.org/Graphics/SVG/1.1/DTD/svg11.dtd">
<svg width="100%" height="100%" viewBox="0 0 64 64" version="1.1" xmlns="http://www.w3.org/2000/svg" xmlns:xlink="http://www.w3.org/1999/xlink" xml:space="preserve" xmlns:serif="http://www.serif.com/" style="fill-rule:evenodd;clip-rule:evenodd;stroke-linejoin:round;stroke-miterlimit:2;">
    <g transform="matrix(1,0,0,1,-399.117,-217.393)">
        <g id="Layer0_23_FILL" transform="matrix(1,0,0,1,399.117,217.393)">
            <path d="M54.95,56.2C54.05,57.233 53.367,58.383 52.9,59.65L57.75,59.3L55.35,55.75C55.217,55.883 55.083,56.033 54.95,56.2M61.65,52.3L64,53.15L64,52.1C63.2,52.067 62.417,52.133 61.65,52.3Z" style="fill:rgb(44,196,108);fill-rule:nonzero;"/>
            <path d="M61.65,52.3C62.417,52.133 63.2,52.067 64,52.1L64,49C62.033,48.967 60.233,49.25 58.6,49.85C57.867,50.117 57.167,50.433 56.5,50.8C56,51.1 55.517,51.433 55.05,51.8C54.55,52.2 54.067,52.633 53.6,53.1C53.233,53.433 52.9,53.783 52.6,54.15C51.133,55.85 50.117,57.767 49.55,59.9C49.217,61.167 49.033,62.533 49,64L52.1,64C52.133,62.433 52.4,60.983 52.9,59.65C53.367,58.383 54.05,57.233 54.95,56.2C55.083,56.033 55.217,55.883 55.35,55.75C55.55,55.517 55.767,55.3 56,55.1C56.167,54.933 56.333,54.783 56.5,54.65C57.667,53.65 58.983,52.95 60.45,52.55C60.85,52.417 61.25,52.333 61.65,52.3Z" style="fill:rgb(49,217,120);fill-rule:nonzero;"/>
            <path d="M64,53.15L61.65,52.3C61.25,52.333 60.85,52.417 60.45,52.55C58.983,52.95 57.667,53.65 56.5,54.65C56.333,54.783 56.167,54.933 56,55.1C55.767,55.3 55.55,55.517 55.35,55.75L57.75,59.3L52.9,59.65C52.4,60.983 52.133,62.433 52.1,64L64,64L64,53.15Z" style="fill:rgb(46,204,113);fill-rule:nonzero;"/>
            <path d="M64,46.7C61.233,46.633 58.733,47.133 56.5,48.2C54.367,49.2 52.483,50.683 50.85,52.65C49.017,54.783 47.8,57.25 47.2,60.05C46.9,61.283 46.733,62.6 46.7,64L49,64C49.033,62.533 49.217,61.167 49.55,59.9C50.117,57.767 51.133,55.85 52.6,54.15C52.9,53.783 53.233,53.433 53.6,53.1C54.067,52.633 54.55,52.2 55.05,51.8C55.517,51.433 56,51.1 56.5,50.8C57.167,50.433 57.867,50.117 58.6,49.85C60.233,49.25 62.033,48.967 64,49L64,46.7Z" style="fill:rgb(177,121,64);fill-rule:nonzero;"/>
            <path d="M64,46.7L64,0L0,0L0,64L46.7,64C46.733,62.6 46.9,61.283 47.2,60.05C47.8,57.25 49.017,54.783 50.85,52.65C52.483,50.683 54.367,49.2 56.5,48.2C58.733,47.133 61.233,46.633 64,46.7Z" style="fill:rgb(187,128,68);fill-rule:nonzero;"/>
        </g>
    </g>
</svg>
