<?xml version="1.0" encoding="UTF-8" standalone="no"?>
<!DOCTYPE svg PUBLIC "-//W3C//DTD SVG 1.1//EN" "http://www.w3.org/Graphics/SVG/1.1/DTD/svg11.dtd">
<svg width="100%" height="100%" viewBox="0 0 64 64" version="1.1" xmlns="http://www.w3.org/2000/svg" xmlns:xlink="http://www.w3.org/1999/xlink" xml:space="preserve" xmlns:serif="http://www.serif.com/" style="fill-rule:evenodd;clip-rule:evenodd;stroke-linejoin:round;stroke-miterlimit:2;">
    <g transform="matrix(1,0,0,1,-584.673,-217.393)">
        <g id="Layer0_25_FILL" transform="matrix(1,0,0,1,456.673,217.393)">
            <path d="M139.35,60.35C138.883,58.817 138.117,57.433 137.05,56.2C136.917,56.067 136.8,55.933 136.7,55.8L137.9,61.6L139.35,60.35M134.25,55.55L133.95,53.55C132.217,52.517 130.233,52.033 128,52.1L128,53.15L134.25,55.55Z" style="fill:rgb(44,196,108);fill-rule:nonzero;"/>
            <path d="M133.95,53.55L134.25,55.55L128,53.15L128,64L139.9,64C139.867,62.7 139.683,61.483 139.35,60.35L137.9,61.6L136.7,55.8C136.3,55.367 135.9,54.983 135.5,54.65C135,54.217 134.483,53.85 133.95,53.55Z" style="fill:rgb(46,204,113);fill-rule:nonzero;"/>
            <path d="M128.8,49L128,49L128,52.1C130.233,52.033 132.217,52.517 133.95,53.55C134.483,53.85 135,54.217 135.5,54.65C135.9,54.983 136.3,55.367 136.7,55.8C136.8,55.933 136.917,56.067 137.05,56.2C138.117,57.433 138.883,58.817 139.35,60.35C139.683,61.483 139.867,62.7 139.9,64L143,64C142.967,61.867 142.583,59.9 141.85,58.1C141.717,57.8 141.583,57.5 141.45,57.2C140.917,56.1 140.233,55.083 139.4,54.15C138.233,52.75 136.933,51.633 135.5,50.8C134.8,50.4 134.067,50.067 133.3,49.8C131.9,49.3 130.4,49.033 128.8,49Z" style="fill:rgb(49,217,120);fill-rule:nonzero;"/>
            <path d="M131.3,46.9C130.233,46.733 129.133,46.667 128,46.7L128,49L128.8,49C130.4,49.033 131.9,49.3 133.3,49.8C134.067,50.067 134.8,50.4 135.5,50.8C136.933,51.633 138.233,52.75 139.4,54.15C140.233,55.083 140.917,56.1 141.45,57.2C141.583,57.5 141.717,57.8 141.85,58.1C142.583,59.9 142.967,61.867 143,64L145.3,64C145.2,59.567 143.817,55.783 141.15,52.65C140.683,52.083 140.183,51.55 139.65,51.05C138.917,50.383 138.167,49.783 137.4,49.25C136.767,48.85 136.133,48.5 135.5,48.2C134.667,47.8 133.8,47.483 132.9,47.25C132.367,47.117 131.833,47 131.3,46.9Z" style="fill:rgb(177,121,64);fill-rule:nonzero;"/>
            <path d="M192,64L192,0L128,0L128,46.7C129.133,46.667 130.233,46.733 131.3,46.9C131.833,47 132.367,47.117 132.9,47.25C133.8,47.483 134.667,47.8 135.5,48.2C136.133,48.5 136.767,48.85 137.4,49.25C138.167,49.783 138.917,50.383 139.65,51.05C140.183,51.55 140.683,52.083 141.15,52.65C143.817,55.783 145.2,59.567 145.3,64L192,64Z" style="fill:rgb(187,128,68);fill-rule:nonzero;"/>
        </g>
    </g>
</svg>
