<?xml version="1.0" encoding="UTF-8" standalone="no"?>
<!DOCTYPE svg PUBLIC "-//W3C//DTD SVG 1.1//EN" "http://www.w3.org/Graphics/SVG/1.1/DTD/svg11.dtd">
<svg width="100%" height="100%" viewBox="0 0 64 64" version="1.1" xmlns="http://www.w3.org/2000/svg" xmlns:xlink="http://www.w3.org/1999/xlink" xml:space="preserve" xmlns:serif="http://www.serif.com/" style="fill-rule:evenodd;clip-rule:evenodd;stroke-linejoin:round;stroke-miterlimit:2;">
    <g transform="matrix(1,0,0,1,-399.117,-379.5)">
        <g id="Layer0_33_FILL" transform="matrix(1,0,0,1,399.117,251.5)">
            <path d="M63.4,139.9L63.65,139.9L63.45,139.7L63.4,139.9M52.7,130.35L52.4,130.65C52.667,131.817 53.083,132.9 53.65,133.9L52.7,130.35M57.75,131.1L59,137.1L63.55,133.05L57.75,131.1Z" style="fill:rgb(44,196,108);fill-rule:nonzero;"/>
            <path d="M47.7,133.75C47.833,134.117 47.967,134.5 48.1,134.9C48.633,136.167 49.317,137.367 50.15,138.5C50.383,138.767 50.617,139.05 50.85,139.35C52.483,141.317 54.367,142.8 56.5,143.8C56.9,144 57.317,144.183 57.75,144.35C58.983,144.817 60.3,145.117 61.7,145.25C62.433,145.317 63.2,145.333 64,145.3L64,143L62.4,143C60.467,142.833 58.7,142.333 57.1,141.5C56.9,141.4 56.7,141.3 56.5,141.2C55.733,140.767 55.017,140.25 54.35,139.65C53.717,139.117 53.133,138.517 52.6,137.85C51.367,136.45 50.467,134.883 49.9,133.15C49.333,131.55 49.033,129.833 49,128L46.7,128C46.733,130.067 47.067,131.983 47.7,133.75Z" style="fill:rgb(177,121,64);fill-rule:nonzero;"/>
            <path d="M48.1,134.9C47.967,134.5 47.833,134.117 47.7,133.75C47.067,131.983 46.733,130.067 46.7,128L0,128L0,192L64,192L64,145.3C63.2,145.333 62.433,145.317 61.7,145.25C60.3,145.117 58.983,144.817 57.75,144.35C57.317,144.183 56.9,144 56.5,143.8C54.367,142.8 52.483,141.317 50.85,139.35C50.617,139.05 50.383,138.767 50.15,138.5C49.317,137.367 48.633,136.167 48.1,134.9Z" style="fill:rgb(187,128,68);fill-rule:nonzero;"/>
            <path d="M53.65,133.9C54.017,134.567 54.45,135.2 54.95,135.8C55.45,136.4 55.967,136.917 56.5,137.35C57.067,137.85 57.683,138.267 58.35,138.6C59.817,139.4 61.5,139.833 63.4,139.9L63.45,139.7L63.65,139.9L64,139.9L64,128L52.1,128C52.133,128.933 52.233,129.817 52.4,130.65L52.7,130.35L53.65,133.9M59,137.1L57.75,131.1L63.55,133.05L59,137.1Z" style="fill:rgb(46,204,113);fill-rule:nonzero;"/>
            <path d="M54.95,135.8C54.45,135.2 54.017,134.567 53.65,133.9C53.083,132.9 52.667,131.817 52.4,130.65C52.233,129.817 52.133,128.933 52.1,128L49,128C49.033,129.833 49.333,131.55 49.9,133.15C50.467,134.883 51.367,136.45 52.6,137.85C53.133,138.517 53.717,139.117 54.35,139.65C55.017,140.25 55.733,140.767 56.5,141.2C56.7,141.3 56.9,141.4 57.1,141.5C58.7,142.333 60.467,142.833 62.4,143L64,143L64,139.9L63.4,139.9C61.5,139.833 59.817,139.4 58.35,138.6C57.683,138.267 57.067,137.85 56.5,137.35C55.967,136.917 55.45,136.4 54.95,135.8Z" style="fill:rgb(49,217,120);fill-rule:nonzero;"/>
        </g>
    </g>
</svg>
