<?xml version="1.0" encoding="UTF-8" standalone="no"?>
<!DOCTYPE svg PUBLIC "-//W3C//DTD SVG 1.1//EN" "http://www.w3.org/Graphics/SVG/1.1/DTD/svg11.dtd">
<svg width="100%" height="100%" viewBox="0 0 64 64" version="1.1" xmlns="http://www.w3.org/2000/svg" xmlns:xlink="http://www.w3.org/1999/xlink" xml:space="preserve" xmlns:serif="http://www.serif.com/" style="fill-rule:evenodd;clip-rule:evenodd;stroke-linejoin:round;stroke-miterlimit:2;">
    <g transform="matrix(1,0,0,1,-584.673,-379.5)">
        <g id="Layer0_31_FILL" transform="matrix(1,0,0,1,456.673,251.5)">
            <path d="M129.4,143L128,143L128,145.3C129.467,145.333 130.85,145.217 132.15,144.95C133.317,144.683 134.433,144.3 135.5,143.8C135.667,143.733 135.833,143.65 136,143.55C136.267,143.417 136.55,143.267 136.85,143.1C138.417,142.133 139.85,140.883 141.15,139.35C141.383,139.083 141.6,138.833 141.8,138.6C142.767,137.267 143.533,135.867 144.1,134.4C144.833,132.433 145.233,130.3 145.3,128L143,128C142.933,131.867 141.733,135.15 139.4,137.85C138.233,139.25 136.933,140.367 135.5,141.2C133.933,142.133 132.217,142.717 130.35,142.95C130.017,142.95 129.7,142.967 129.4,143Z" style="fill:rgb(177,121,64);fill-rule:nonzero;"/>
            <path d="M139.75,129.7C139.85,129.167 139.9,128.6 139.9,128L128,128L128,139.9L128.7,139.9C131.333,139.833 133.6,138.983 135.5,137.35C135.767,137.117 136.05,136.867 136.35,136.6C136.583,136.367 136.817,136.1 137.05,135.8C137.35,135.467 137.617,135.117 137.85,134.75C137.95,134.617 138.033,134.5 138.1,134.4C138.967,133 139.517,131.433 139.75,129.7Z" style="fill:rgb(46,204,113);fill-rule:nonzero;"/>
            <path d="M139.9,128C139.9,128.6 139.85,129.167 139.75,129.7C139.517,131.433 138.967,133 138.1,134.4C138.033,134.5 137.95,134.617 137.85,134.75C137.617,135.117 137.35,135.467 137.05,135.8C136.817,136.1 136.583,136.367 136.35,136.6C136.05,136.867 135.767,137.117 135.5,137.35C133.6,138.983 131.333,139.833 128.7,139.9L128,139.9L128,143L129.4,143C129.7,142.967 130.017,142.95 130.35,142.95C132.217,142.717 133.933,142.133 135.5,141.2C136.933,140.367 138.233,139.25 139.4,137.85C141.733,135.15 142.933,131.867 143,128L139.9,128Z" style="fill:rgb(49,217,120);fill-rule:nonzero;"/>
            <path d="M192,192L192,128L145.3,128C145.233,130.3 144.833,132.433 144.1,134.4C143.533,135.867 142.767,137.267 141.8,138.6C141.6,138.833 141.383,139.083 141.15,139.35C139.85,140.883 138.417,142.133 136.85,143.1C136.55,143.267 136.267,143.417 136,143.55C135.833,143.65 135.667,143.733 135.5,143.8C134.433,144.3 133.317,144.683 132.15,144.95C130.85,145.217 129.467,145.333 128,145.3L128,192L192,192Z" style="fill:rgb(187,128,68);fill-rule:nonzero;"/>
        </g>
    </g>
</svg>
