<?xml version="1.0" encoding="UTF-8" standalone="no"?>
<!DOCTYPE svg PUBLIC "-//W3C//DTD SVG 1.1//EN" "http://www.w3.org/Graphics/SVG/1.1/DTD/svg11.dtd">
<svg width="100%" height="100%" viewBox="0 0 64 64" version="1.1" xmlns="http://www.w3.org/2000/svg" xmlns:xlink="http://www.w3.org/1999/xlink" xml:space="preserve" xmlns:serif="http://www.serif.com/" style="fill-rule:evenodd;clip-rule:evenodd;stroke-linejoin:round;stroke-miterlimit:2;">
    <g transform="matrix(1,0,0,1,-112.055,-1105.59)">
        <g id="Layer0_37_FILL" transform="matrix(1,0,0,1,-79.9453,1041.59)">
            <path d="M256,117.15L256,116.1C255.033,116.1 254.083,116.083 253.15,116.05L253.1,116.05L256,117.15M196.65,109.8L192,113.65L192,117.15L198.25,119.55L196.65,109.8M223.25,126.75L224.35,128L231.85,128L232.9,124.8L223.25,126.75M221.9,103.45L221.3,104.35L223.1,104.45C222.7,104.117 222.3,103.783 221.9,103.45M232.8,110.85C231.833,110.35 230.883,109.833 229.95,109.3L229.85,112.4L232.8,110.85M205.85,78.7L205.85,78.6L199.75,79.2L203.3,84.15L205.85,78.7M198,83L192,76.35L192,84.3L198,83M195.45,96.25L192,96.95L192,105.2L192.3,105.55L195.45,96.25M196.35,65.7L201.25,74.2L204.15,69.2C204.017,68.067 203.95,66.9 203.95,65.7L196.35,65.7M249.75,123.3L244.25,115.15L239.95,124L249.75,123.3M200.65,119.6L201.9,125.6L206.45,121.55L200.65,119.6M217,106.1L208.15,101.85L208.9,111.65L217,106.1M217.9,118.15L208.25,120.1L214.8,127.45L217.9,118.15M203.7,108.5L205.65,102.7L199.65,103.95L203.7,108.5M235.5,121.05L235.85,114.95L230.35,117.7L235.5,121.05M226.05,117.85L223.35,112.4L219.95,117.5L226.05,117.85M200.75,87.6L200.4,97.45L209.05,92.85L200.75,87.6Z" style="fill:rgb(44,196,108);fill-rule:nonzero;"/>
            <path d="M209.3,64C209.3,65.633 209.383,67.25 209.55,68.85C209.783,71.583 210.267,74.25 211,76.85C211.267,77.917 211.6,78.983 212,80.05C212.5,81.483 213.083,82.883 213.75,84.25C215.017,86.883 216.567,89.4 218.4,91.8C219,92.6 219.633,93.383 220.3,94.15C221.033,95.017 221.817,95.867 222.65,96.7C222.75,96.8 222.85,96.9 222.95,97C224.15,98.2 225.367,99.317 226.6,100.35C227.767,101.283 228.95,102.167 230.15,103C232.317,104.467 234.567,105.733 236.9,106.8C237.233,106.933 237.583,107.083 237.95,107.25C239.65,107.95 241.383,108.55 243.15,109.05C243.817,109.25 244.5,109.417 245.2,109.55C246.067,109.75 246.95,109.917 247.85,110.05C250.483,110.483 253.2,110.7 256,110.7L256,64L209.3,64Z" style="fill:rgb(187,128,68);fill-rule:nonzero;"/>
            <path d="M207,64C207,66.433 207.15,68.8 207.45,71.1C207.717,73.2 208.133,75.25 208.7,77.25C208.7,77.283 208.717,77.3 208.75,77.3C209.05,78.5 209.417,79.683 209.85,80.85C210.417,82.483 211.083,84.067 211.85,85.6C212.05,86 212.25,86.4 212.45,86.8C213.783,89.3 215.367,91.717 217.2,94.05C217.433,94.317 217.667,94.6 217.9,94.9C218.433,95.533 218.983,96.167 219.55,96.8C220.117,97.433 220.7,98.05 221.3,98.65C222.033,99.383 222.8,100.1 223.6,100.8C223.733,100.9 223.867,101.017 224,101.15C224.867,101.917 225.767,102.65 226.7,103.35C227.8,104.183 228.917,104.967 230.05,105.7C231.583,106.667 233.167,107.55 234.8,108.35C235.267,108.583 235.75,108.8 236.25,109C238.717,110.1 241.3,110.983 244,111.65C247.8,112.55 251.8,113 256,113L256,110.7C253.2,110.7 250.483,110.483 247.85,110.05C246.95,109.917 246.067,109.75 245.2,109.55C244.5,109.417 243.817,109.25 243.15,109.05C241.383,108.55 239.65,107.95 237.95,107.25C237.583,107.083 237.233,106.933 236.9,106.8C234.567,105.733 232.317,104.467 230.15,103C228.95,102.167 227.767,101.283 226.6,100.35C225.367,99.317 224.15,98.2 222.95,97C222.85,96.9 222.75,96.8 222.65,96.7C221.817,95.867 221.033,95.017 220.3,94.15C219.633,93.383 219,92.6 218.4,91.8C216.567,89.4 215.017,86.883 213.75,84.25C213.083,82.883 212.5,81.483 212,80.05C211.6,78.983 211.267,77.917 211,76.85C210.267,74.25 209.783,71.583 209.55,68.85C209.383,67.25 209.3,65.633 209.3,64L207,64Z" style="fill:rgb(177,121,64);fill-rule:nonzero;"/>
            <path d="M203.95,65.7C203.95,66.9 204.017,68.067 204.15,69.2C204.417,72.467 204.983,75.6 205.85,78.6L205.85,78.7C206.417,80.733 207.117,82.7 207.95,84.6C208.883,86.833 210.017,89 211.35,91.1C213.483,94.533 216.067,97.783 219.1,100.85C219.233,100.983 219.383,101.117 219.55,101.25C219.883,101.583 220.233,101.917 220.6,102.25C221.033,102.65 221.467,103.05 221.9,103.45C222.3,103.783 222.7,104.117 223.1,104.45C225.267,106.283 227.55,107.9 229.95,109.3C230.883,109.833 231.833,110.35 232.8,110.85C233.867,111.35 234.95,111.833 236.05,112.3C237.85,113.067 239.717,113.717 241.65,114.25C243.417,114.717 245.217,115.1 247.05,115.4C248.817,115.7 250.633,115.9 252.5,116C252.7,116 252.917,116.017 253.15,116.05C254.083,116.083 255.033,116.1 256,116.1L256,113C251.8,113 247.8,112.55 244,111.65C241.3,110.983 238.717,110.1 236.25,109C235.75,108.8 235.267,108.583 234.8,108.35C233.167,107.55 231.583,106.667 230.05,105.7C228.917,104.967 227.8,104.183 226.7,103.35C225.767,102.65 224.867,101.917 224,101.15C223.867,101.017 223.733,100.9 223.6,100.8C222.8,100.1 222.033,99.383 221.3,98.65C220.7,98.05 220.117,97.433 219.55,96.8C218.983,96.167 218.433,95.533 217.9,94.9C217.667,94.6 217.433,94.317 217.2,94.05C215.367,91.717 213.783,89.3 212.45,86.8C212.25,86.4 212.05,86 211.85,85.6C211.083,84.067 210.417,82.483 209.85,80.85C209.417,79.683 209.05,78.5 208.75,77.3C208.717,77.3 208.7,77.283 208.7,77.25C208.133,75.25 207.717,73.2 207.45,71.1C207.15,68.8 207,66.433 207,64L203.9,64C203.9,64.567 203.917,65.133 203.95,65.7Z" style="fill:rgb(49,217,120);fill-rule:nonzero;"/>
            <path d="M192,64L192,76.35L198,83L192,84.3L192,96.95L195.45,96.25L192.3,105.55L192,105.2L192,113.65L196.65,109.8L198.25,119.55L192,117.15L192,128L224.35,128L223.25,126.75L232.9,124.8L231.85,128L256,128L256,117.15L253.1,116.05L253.15,116.05C252.917,116.017 252.7,116 252.5,116C250.633,115.9 248.817,115.7 247.05,115.4C245.217,115.1 243.417,114.717 241.65,114.25C239.717,113.717 237.85,113.067 236.05,112.3C234.95,111.833 233.867,111.35 232.8,110.85L229.85,112.4L229.95,109.3C227.55,107.9 225.267,106.283 223.1,104.45L221.3,104.35L221.9,103.45C221.467,103.05 221.033,102.65 220.6,102.25C220.233,101.917 219.883,101.583 219.55,101.25C219.383,101.117 219.233,100.983 219.1,100.85C216.067,97.783 213.483,94.533 211.35,91.1C210.017,89 208.883,86.833 207.95,84.6C207.117,82.7 206.417,80.733 205.85,78.7L203.3,84.15L199.75,79.2L205.85,78.6C204.983,75.6 204.417,72.467 204.15,69.2L201.25,74.2L196.35,65.7L203.95,65.7C203.917,65.133 203.9,64.567 203.9,64L192,64M200.4,97.45L200.75,87.6L209.05,92.85L200.4,97.45M223.35,112.4L226.05,117.85L219.95,117.5L223.35,112.4M235.85,114.95L235.5,121.05L230.35,117.7L235.85,114.95M205.65,102.7L203.7,108.5L199.65,103.95L205.65,102.7M208.25,120.1L217.9,118.15L214.8,127.45L208.25,120.1M208.15,101.85L217,106.1L208.9,111.65L208.15,101.85M201.9,125.6L200.65,119.6L206.45,121.55L201.9,125.6M244.25,115.15L249.75,123.3L239.95,124L244.25,115.15Z" style="fill:rgb(46,204,113);fill-rule:nonzero;"/>
        </g>
    </g>
</svg>
