<?xml version="1.0" encoding="UTF-8" standalone="no"?>
<!DOCTYPE svg PUBLIC "-//W3C//DTD SVG 1.1//EN" "http://www.w3.org/Graphics/SVG/1.1/DTD/svg11.dtd">
<svg width="100%" height="100%" viewBox="0 0 64 64" version="1.1" xmlns="http://www.w3.org/2000/svg" xmlns:xlink="http://www.w3.org/1999/xlink" xml:space="preserve" xmlns:serif="http://www.serif.com/" style="fill-rule:evenodd;clip-rule:evenodd;stroke-linejoin:round;stroke-miterlimit:2;">
    <g transform="matrix(1,0,0,1,-399.117,-302.533)">
        <g id="Layer0_34_FILL" transform="matrix(1,0,0,1,399.117,238.533)">
            <path d="M57.75,123.3L52.25,115.15L49.75,120.35C49.75,121.517 49.917,122.683 50.25,123.85L57.75,123.3M54.35,106.05C54.183,107.25 53.85,108.45 53.35,109.65L55.75,111.25L56.15,105.15L54.35,106.05M64,117.15L64,113.65L61.1,116.05L64,117.15M64,96.95L57.75,98.2L64,105.25L64,96.95M64,84.3L64,76.3L63.45,75.7L60.45,85.05L64,84.3M50.15,91.45L50.15,91.5C50.517,93.033 51.167,94.533 52.1,96C52.133,96.067 52.167,96.117 52.2,96.15L54.05,90.65L50.15,91.45M50.65,83.35L52.15,84.35L52.5,79.4C52.367,79.6 52.233,79.8 52.1,80C51.5,81.133 51.017,82.25 50.65,83.35M54.05,75.55L55.15,75.85L54.45,73.05C54.383,73.883 54.25,74.717 54.05,75.55M57.75,67.1L59,73.1L63.55,69.05L57.75,67.1Z" style="fill:rgb(44,196,108);fill-rule:nonzero;"/>
            <path d="M48.05,66.9C47.683,65.933 47.233,64.967 46.7,64L0,64L0,128L46.7,128C45.833,126.6 45.2,125.183 44.8,123.75C44.1,121.15 44.2,118.45 45.1,115.65C45.5,114.45 46.033,113.233 46.7,112C47.867,110.167 48.6,108.267 48.9,106.3C49.3,103.667 48.917,100.967 47.75,98.2C47.483,97.567 47.2,96.933 46.9,96.3C46.833,96.2 46.767,96.1 46.7,96C46.267,95.333 45.9,94.65 45.6,93.95C45.367,93.45 45.183,92.967 45.05,92.5C43.75,88.533 44.3,84.367 46.7,80C47.9,78.1 48.65,76.15 48.95,74.15C49.117,72.817 49.1,71.467 48.9,70.1C48.733,69.033 48.45,67.967 48.05,66.9Z" style="fill:rgb(187,128,68);fill-rule:nonzero;"/>
            <path d="M50.2,68.85C49.933,67.25 49.533,65.633 49,64L46.7,64C47.233,64.967 47.683,65.933 48.05,66.9C48.45,67.967 48.733,69.033 48.9,70.1C49.1,71.467 49.117,72.817 48.95,74.15C48.65,76.15 47.9,78.1 46.7,80C44.3,84.367 43.75,88.533 45.05,92.5C45.183,92.967 45.367,93.45 45.6,93.95C45.9,94.65 46.267,95.333 46.7,96C46.767,96.1 46.833,96.2 46.9,96.3C47.2,96.933 47.483,97.567 47.75,98.2C48.917,100.967 49.3,103.667 48.9,106.3C48.6,108.267 47.867,110.167 46.7,112C46.033,113.233 45.5,114.45 45.1,115.65C44.2,118.45 44.1,121.15 44.8,123.75C45.2,125.183 45.833,126.6 46.7,128L49,128C48.833,127.567 48.683,127.133 48.55,126.7C48.283,125.833 48.083,124.967 47.95,124.1C47.383,121.067 47.483,117.917 48.25,114.65C48.45,113.783 48.7,112.9 49,112C49.7,110.2 50.15,108.35 50.35,106.45C50.583,103.95 50.383,101.35 49.75,98.65C49.55,97.783 49.3,96.9 49,96C48.467,94.667 48.1,93.3 47.9,91.9C47.733,90.967 47.633,90.033 47.6,89.1C47.567,88.333 47.583,87.55 47.65,86.75C47.75,85.15 48.017,83.55 48.45,81.95C48.583,81.317 48.767,80.7 49,80.1L49,80C49.667,78.233 50.1,76.417 50.3,74.55C50.5,72.683 50.467,70.783 50.2,68.85Z" style="fill:rgb(177,121,64);fill-rule:nonzero;"/>
            <path d="M54.45,73.05C54.617,70.15 53.833,67.133 52.1,64L49,64C49.533,65.633 49.933,67.25 50.2,68.85C50.467,70.783 50.5,72.683 50.3,74.55C50.1,76.417 49.667,78.233 49,80L49,80.1C48.767,80.7 48.583,81.317 48.45,81.95C48.017,83.55 47.75,85.15 47.65,86.75C47.583,87.55 47.567,88.333 47.6,89.1C47.633,90.033 47.733,90.967 47.9,91.9C48.1,93.3 48.467,94.667 49,96C49.3,96.9 49.55,97.783 49.75,98.65C50.383,101.35 50.583,103.95 50.35,106.45C50.15,108.35 49.7,110.2 49,112C48.7,112.9 48.45,113.783 48.25,114.65C47.483,117.917 47.383,121.067 47.95,124.1C48.083,124.967 48.283,125.833 48.55,126.7C48.683,127.133 48.833,127.567 49,128L52.1,128C51.233,126.633 50.617,125.25 50.25,123.85C49.917,122.683 49.75,121.517 49.75,120.35C49.75,118.183 50.25,115.967 51.25,113.7C51.517,113.133 51.8,112.583 52.1,112.05L52.1,112C52.6,111.233 53.017,110.45 53.35,109.65C53.85,108.45 54.183,107.25 54.35,106.05C54.583,104.183 54.433,102.283 53.9,100.35C53.533,99.05 53.017,97.75 52.35,96.45C52.283,96.35 52.233,96.25 52.2,96.15C52.167,96.117 52.133,96.067 52.1,96C51.167,94.533 50.517,93.033 50.15,91.5L50.15,91.45C49.55,89.083 49.617,86.667 50.35,84.2C50.417,83.933 50.517,83.65 50.65,83.35C51.017,82.25 51.5,81.133 52.1,80C52.233,79.8 52.367,79.6 52.5,79.4C53.2,78.133 53.717,76.85 54.05,75.55C54.25,74.717 54.383,73.883 54.45,73.05Z" style="fill:rgb(49,217,120);fill-rule:nonzero;"/>
            <path d="M52.1,64C53.833,67.133 54.617,70.15 54.45,73.05L55.15,75.85L54.05,75.55C53.717,76.85 53.2,78.133 52.5,79.4L52.15,84.35L50.65,83.35C50.517,83.65 50.417,83.933 50.35,84.2C49.617,86.667 49.55,89.083 50.15,91.45L54.05,90.65L52.2,96.15C52.233,96.25 52.283,96.35 52.35,96.45C53.017,97.75 53.533,99.05 53.9,100.35C54.433,102.283 54.583,104.183 54.35,106.05L56.15,105.15L55.75,111.25L53.35,109.65C53.017,110.45 52.6,111.233 52.1,112L52.1,112.05C51.8,112.583 51.517,113.133 51.25,113.7C50.25,115.967 49.75,118.183 49.75,120.35L52.25,115.15L57.75,123.3L50.25,123.85C50.617,125.25 51.233,126.633 52.1,128L64,128L64,117.15L61.1,116.05L64,113.65L64,105.25L57.75,98.2L64,96.95L64,84.3L60.45,85.05L63.45,75.7L64,76.3L64,64L52.1,64M59,73.1L57.75,67.1L63.55,69.05L59,73.1Z" style="fill:rgb(46,204,113);fill-rule:nonzero;"/>
        </g>
    </g>
</svg>
