<?xml version="1.0" encoding="UTF-8" standalone="no"?>
<!DOCTYPE svg PUBLIC "-//W3C//DTD SVG 1.1//EN" "http://www.w3.org/Graphics/SVG/1.1/DTD/svg11.dtd">
<svg width="100%" height="100%" viewBox="0 0 64 64" version="1.1" xmlns="http://www.w3.org/2000/svg" xmlns:xlink="http://www.w3.org/1999/xlink" xml:space="preserve" xmlns:serif="http://www.serif.com/" style="fill-rule:evenodd;clip-rule:evenodd;stroke-linejoin:round;stroke-miterlimit:2;">
    <g transform="matrix(1,0,0,1,-489.653,-217.393)">
        <g id="Layer0_24_FILL" transform="matrix(1,0,0,1,425.653,217.393)">
            <path d="M70.25,55.55L69.35,50C67.517,50.3 65.733,51 64,52.1L64,53.15L70.25,55.55M126.85,52.7L128,53.15L128,52.1C127.6,52.333 127.217,52.533 126.85,52.7M89.85,54.3C89.417,54.367 88.983,54.417 88.55,54.45L80.25,56.1L86.8,63.45L89.85,54.3M98.05,53.85L96.95,51.6C96.617,51.733 96.3,51.9 96,52.1C94.933,52.7 93.883,53.183 92.85,53.55L98.05,53.85M103.85,64L104.9,60.8L95.25,62.75L96.35,64L103.85,64M73.9,61.6L78.45,57.55L72.65,55.6L73.9,61.6M107.5,57.05L107.85,50.95L102.35,53.7L107.5,57.05M118.45,54.45C117.283,54.317 116.15,54.05 115.05,53.65L111.95,60L121.75,59.3L118.45,54.45Z" style="fill:rgb(44,196,108);fill-rule:nonzero;"/>
            <path d="M111.95,60L115.05,53.65C114.017,53.25 113,52.733 112,52.1C111.433,51.8 110.883,51.533 110.35,51.3C109.817,51.033 109.3,50.817 108.8,50.65C106.7,49.917 104.667,49.633 102.7,49.8C100.9,49.933 99.15,50.433 97.45,51.3C97.283,51.4 97.117,51.5 96.95,51.6L98.05,53.85L92.85,53.55C92.583,53.65 92.333,53.733 92.1,53.8C91.333,54.033 90.583,54.2 89.85,54.3L86.8,63.45L80.25,56.1L88.55,54.45C86.317,54.55 84.15,54.133 82.05,53.2C81.35,52.9 80.667,52.533 80,52.1C78.933,51.5 77.867,51.017 76.8,50.65C75.733,50.283 74.667,50.033 73.6,49.9C72.167,49.7 70.75,49.733 69.35,50L70.25,55.55L64,53.15L64,64L96.35,64L95.25,62.75L104.9,60.8L103.85,64L128,64L128,53.15L126.85,52.7C125.983,53.133 125.133,53.483 124.3,53.75C122.4,54.317 120.55,54.55 118.75,54.45L118.45,54.45L121.75,59.3L111.95,60M107.85,50.95L107.5,57.05L102.35,53.7L107.85,50.95M78.45,57.55L73.9,61.6L72.65,55.6L78.45,57.55Z" style="fill:rgb(46,204,113);fill-rule:nonzero;"/>
            <path d="M96.4,48.85C96.267,48.917 96.133,48.967 96,49C95.9,49.033 95.8,49.067 95.7,49.1C95.367,49.2 95.033,49.317 94.7,49.45C94.133,49.583 93.567,49.717 93,49.85C89.433,50.617 86.033,50.617 82.8,49.85C81.833,49.617 80.9,49.333 80,49C79.4,48.8 78.817,48.633 78.25,48.5C76.417,48 74.617,47.7 72.85,47.6C71.55,47.533 70.267,47.583 69,47.75C67.733,47.917 66.517,48.183 65.35,48.55C64.883,48.683 64.433,48.833 64,49L64,52.1C65.733,51 67.517,50.3 69.35,50C70.75,49.733 72.167,49.7 73.6,49.9C74.667,50.033 75.733,50.283 76.8,50.65C77.867,51.017 78.933,51.5 80,52.1C80.667,52.533 81.35,52.9 82.05,53.2C84.15,54.133 86.317,54.55 88.55,54.45C88.983,54.417 89.417,54.367 89.85,54.3C90.583,54.2 91.333,54.033 92.1,53.8C92.333,53.733 92.583,53.65 92.85,53.55C93.883,53.183 94.933,52.7 96,52.1C96.3,51.9 96.617,51.733 96.95,51.6C97.117,51.5 97.283,51.4 97.45,51.3C99.15,50.433 100.9,49.933 102.7,49.8C104.667,49.633 106.7,49.917 108.8,50.65C109.3,50.817 109.817,51.033 110.35,51.3C110.883,51.533 111.433,51.8 112,52.1C113,52.733 114.017,53.25 115.05,53.65C116.15,54.05 117.283,54.317 118.45,54.45L118.75,54.45C120.55,54.55 122.4,54.317 124.3,53.75C125.133,53.483 125.983,53.133 126.85,52.7C127.217,52.533 127.6,52.333 128,52.1L128,49C126.7,49.433 125.433,49.767 124.2,50C122.467,50.333 120.783,50.483 119.15,50.45C117.65,50.383 116.2,50.183 114.8,49.85C113.833,49.617 112.9,49.333 112,49C110.633,48.533 109.283,48.183 107.95,47.95C106.383,47.683 104.867,47.567 103.4,47.6C102.9,47.6 102.4,47.617 101.9,47.65L101.75,47.65C99.917,47.817 98.133,48.217 96.4,48.85Z" style="fill:rgb(49,217,120);fill-rule:nonzero;"/>
            <path d="M128,49L128,46.7C123.9,48.967 120,49.6 116.3,48.6C114.833,48.2 113.4,47.567 112,46.7C110.7,45.967 109.433,45.417 108.2,45.05C107.767,44.917 107.333,44.8 106.9,44.7C105.233,44.333 103.6,44.267 102,44.5C99.933,44.767 97.933,45.5 96,46.7C95.067,47.2 94.167,47.633 93.3,48C89.733,49.333 86.35,49.417 83.15,48.25C82.517,48.017 81.883,47.733 81.25,47.4C81.117,47.333 81,47.267 80.9,47.2C80.6,47.033 80.3,46.867 80,46.7C79.067,46.2 78.15,45.767 77.25,45.4L77.15,45.4C72.517,43.667 68.133,44.1 64,46.7L64,49C64.433,48.833 64.883,48.683 65.35,48.55C66.517,48.183 67.733,47.917 69,47.75C70.267,47.583 71.55,47.533 72.85,47.6C74.617,47.7 76.417,48 78.25,48.5C78.817,48.633 79.4,48.8 80,49C80.9,49.333 81.833,49.617 82.8,49.85C86.033,50.617 89.433,50.617 93,49.85C93.567,49.717 94.133,49.583 94.7,49.45C95.033,49.317 95.367,49.2 95.7,49.1C95.8,49.067 95.9,49.033 96,49C96.133,48.967 96.267,48.917 96.4,48.85C98.133,48.217 99.917,47.817 101.75,47.65L101.9,47.65C102.4,47.617 102.9,47.6 103.4,47.6C104.867,47.567 106.383,47.683 107.95,47.95C109.283,48.183 110.633,48.533 112,49C112.9,49.333 113.833,49.617 114.8,49.85C116.2,50.183 117.65,50.383 119.15,50.45C120.783,50.483 122.467,50.333 124.2,50C125.433,49.767 126.7,49.433 128,49Z" style="fill:rgb(177,121,64);fill-rule:nonzero;"/>
            <path d="M128,46.7L128,0L64,0L64,46.7C68.133,44.1 72.517,43.667 77.15,45.4L77.25,45.4C78.15,45.767 79.067,46.2 80,46.7C80.3,46.867 80.6,47.033 80.9,47.2C81,47.267 81.117,47.333 81.25,47.4C81.883,47.733 82.517,48.017 83.15,48.25C86.35,49.417 89.733,49.333 93.3,48C94.167,47.633 95.067,47.2 96,46.7C97.933,45.5 99.933,44.767 102,44.5C103.6,44.267 105.233,44.333 106.9,44.7C107.333,44.8 107.767,44.917 108.2,45.05C109.433,45.417 110.7,45.967 112,46.7C113.4,47.567 114.833,48.2 116.3,48.6C120,49.6 123.9,48.967 128,46.7Z" style="fill:rgb(187,128,68);fill-rule:nonzero;"/>
        </g>
    </g>
</svg>
