<?xml version="1.0" encoding="UTF-8" standalone="no"?>
<!DOCTYPE svg PUBLIC "-//W3C//DTD SVG 1.1//EN" "http://www.w3.org/Graphics/SVG/1.1/DTD/svg11.dtd">
<svg width="100%" height="100%" viewBox="0 0 64 64" version="1.1" xmlns="http://www.w3.org/2000/svg" xmlns:xlink="http://www.w3.org/1999/xlink" xml:space="preserve" xmlns:serif="http://www.serif.com/" style="fill-rule:evenodd;clip-rule:evenodd;stroke-linejoin:round;stroke-miterlimit:2;">
    <g transform="matrix(1,0,0,1,-584.673,-302.533)">
        <g id="Layer0_36_FILL" transform="matrix(1,0,0,1,456.673,238.533)">
            <path d="M128,113.65L128,117.15L134.25,119.55L132.65,109.8L128,113.65M135.65,103.95L137.75,106.3C137.683,105.833 137.633,105.367 137.6,104.9C137.567,104.433 137.567,103.983 137.6,103.55L135.65,103.95M142.2,121.8L142.2,121.5L136.65,119.6L137.9,125.6L142.2,121.8M140.3,95.4C140.5,95.033 140.683,94.667 140.85,94.3C141.383,93.2 141.767,92.067 142,90.9L136.75,87.6L136.4,97.45L140.3,95.4M131.45,96.25L128,96.95L128,105.2L128.3,105.55L131.45,96.25M128,76.35L128,84.3L134,83L128,76.35M139.3,84.15L140.6,81.4C140.4,80.933 140.167,80.467 139.9,80C139.667,79.633 139.45,79.25 139.25,78.85L135.75,79.2L139.3,84.15M137.25,74.2L137.65,73.55C137.55,72.65 137.55,71.75 137.65,70.85C137.683,70.483 137.733,70.1 137.8,69.7C138.033,68.4 138.45,67.067 139.05,65.7L132.35,65.7L137.25,74.2Z" style="fill:rgb(44,196,108);fill-rule:nonzero;"/>
            <path d="M137.65,70.85C137.55,71.75 137.55,72.65 137.65,73.55C137.817,75.35 138.35,77.117 139.25,78.85C139.45,79.25 139.667,79.633 139.9,80C140.167,80.467 140.4,80.933 140.6,81.4C141,82.233 141.333,83.083 141.6,83.95C142.3,86.35 142.433,88.667 142,90.9C141.767,92.067 141.383,93.2 140.85,94.3C140.683,94.667 140.5,95.033 140.3,95.4C140.167,95.6 140.033,95.8 139.9,96C139.1,97.467 138.5,98.933 138.1,100.4C137.8,101.433 137.633,102.483 137.6,103.55C137.567,103.983 137.567,104.433 137.6,104.9C137.633,105.367 137.683,105.833 137.75,106.3C137.917,107.6 138.3,108.883 138.9,110.15C139.167,110.783 139.5,111.4 139.9,112C140.367,112.867 140.767,113.717 141.1,114.55C142.033,116.917 142.4,119.233 142.2,121.5L142.2,121.8C141.933,123.933 141.167,126 139.9,128L143,128C143.933,125.533 144.417,122.967 144.45,120.3L144.45,120.1C144.417,117.467 143.933,114.767 143,112C142.1,109.667 141.633,107.25 141.6,104.75C141.567,104.05 141.583,103.367 141.65,102.7C141.683,102.2 141.733,101.717 141.8,101.25C142,99.55 142.4,97.8 143,96C143.133,95.667 143.267,95.333 143.4,95C143.567,94.5 143.717,94 143.85,93.5C143.95,93.1 144.033,92.683 144.1,92.25C144.533,89.783 144.55,87.233 144.15,84.6C143.917,83.1 143.533,81.567 143,80C142.3,78.2 141.867,76.367 141.7,74.5C141.633,74.033 141.6,73.567 141.6,73.1C141.5,70.167 141.967,67.133 143,64L139.9,64C139.6,64.567 139.317,65.133 139.05,65.7C138.45,67.067 138.033,68.4 137.8,69.7C137.733,70.1 137.683,70.483 137.65,70.85Z" style="fill:rgb(49,217,120);fill-rule:nonzero;"/>
            <path d="M137.65,73.55L137.25,74.2L132.35,65.7L139.05,65.7C139.317,65.133 139.6,64.567 139.9,64L128,64L128,76.35L134,83L128,84.3L128,96.95L131.45,96.25L128.3,105.55L128,105.2L128,113.65L132.65,109.8L134.25,119.55L128,117.15L128,128L139.9,128C141.167,126 141.933,123.933 142.2,121.8L137.9,125.6L136.65,119.6L142.2,121.5C142.4,119.233 142.033,116.917 141.1,114.55C140.767,113.717 140.367,112.867 139.9,112C139.5,111.4 139.167,110.783 138.9,110.15C138.3,108.883 137.917,107.6 137.75,106.3L135.65,103.95L137.6,103.55C137.633,102.483 137.8,101.433 138.1,100.4C138.5,98.933 139.1,97.467 139.9,96C140.033,95.8 140.167,95.6 140.3,95.4L136.4,97.45L136.75,87.6L142,90.9C142.433,88.667 142.3,86.35 141.6,83.95C141.333,83.083 141,82.233 140.6,81.4L139.3,84.15L135.75,79.2L139.25,78.85C138.35,77.117 137.817,75.35 137.65,73.55Z" style="fill:rgb(46,204,113);fill-rule:nonzero;"/>
            <path d="M145.3,64L143,64C141.967,67.133 141.5,70.167 141.6,73.1C141.6,73.567 141.633,74.033 141.7,74.5C141.867,76.367 142.3,78.2 143,80C143.533,81.567 143.917,83.1 144.15,84.6C144.55,87.233 144.533,89.783 144.1,92.25C144.033,92.683 143.95,93.1 143.85,93.5C143.717,94 143.567,94.5 143.4,95C143.267,95.333 143.133,95.667 143,96C142.4,97.8 142,99.55 141.8,101.25C141.733,101.717 141.683,102.2 141.65,102.7C141.583,103.367 141.567,104.05 141.6,104.75C141.633,107.25 142.1,109.667 143,112C143.933,114.767 144.417,117.467 144.45,120.1L144.45,120.3C144.417,122.967 143.933,125.533 143,128L145.3,128C146.233,126.533 146.883,125.033 147.25,123.5C147.517,122.367 147.65,121.233 147.65,120.1L147.65,119.45C147.517,117.883 147.167,116.317 146.6,114.75C146.233,113.85 145.8,112.933 145.3,112C145.2,111.867 145.117,111.717 145.05,111.55C144.983,111.45 144.933,111.367 144.9,111.3C143.333,108.533 142.717,105.683 143.05,102.75C143.05,102.55 143.067,102.367 143.1,102.2C143.4,100.2 144.133,98.133 145.3,96C145.4,95.867 145.5,95.717 145.6,95.55C146.2,94.517 146.667,93.483 147,92.45L147.45,90.8C147.75,89.067 147.733,87.283 147.4,85.45C147.067,83.883 146.483,82.283 145.65,80.65C145.55,80.417 145.433,80.2 145.3,80C144.767,79.167 144.333,78.317 144,77.45C143.833,77.017 143.683,76.583 143.55,76.15C143.083,74.683 142.9,73.183 143,71.65C143.1,69.15 143.867,66.6 145.3,64Z" style="fill:rgb(177,121,64);fill-rule:nonzero;"/>
            <path d="M192,128L192,64L145.3,64C143.867,66.6 143.1,69.15 143,71.65C142.9,73.183 143.083,74.683 143.55,76.15C143.683,76.583 143.833,77.017 144,77.45C144.333,78.317 144.767,79.167 145.3,80C145.433,80.2 145.55,80.417 145.65,80.65C146.483,82.283 147.067,83.883 147.4,85.45C147.733,87.283 147.75,89.067 147.45,90.8L147,92.45C146.667,93.483 146.2,94.517 145.6,95.55C145.5,95.717 145.4,95.867 145.3,96C144.133,98.133 143.4,100.2 143.1,102.2C143.067,102.367 143.05,102.55 143.05,102.75C142.717,105.683 143.333,108.533 144.9,111.3C144.933,111.367 144.983,111.45 145.05,111.55C145.117,111.717 145.2,111.867 145.3,112C145.8,112.933 146.233,113.85 146.6,114.75C147.167,116.317 147.517,117.883 147.65,119.45L147.65,120.1C147.65,121.233 147.517,122.367 147.25,123.5C146.883,125.033 146.233,126.533 145.3,128L192,128Z" style="fill:rgb(187,128,68);fill-rule:nonzero;"/>
        </g>
    </g>
</svg>
