<?xml version="1.0" encoding="UTF-8" standalone="no"?>
<!DOCTYPE svg PUBLIC "-//W3C//DTD SVG 1.1//EN" "http://www.w3.org/Graphics/SVG/1.1/DTD/svg11.dtd">
<svg width="100%" height="100%" viewBox="0 0 64 64" version="1.1" xmlns="http://www.w3.org/2000/svg" xmlns:xlink="http://www.w3.org/1999/xlink" xml:space="preserve" xmlns:serif="http://www.serif.com/" style="fill-rule:evenodd;clip-rule:evenodd;stroke-linejoin:round;stroke-miterlimit:2;">
    <g transform="matrix(1,0,0,1,-489.653,-379.5)">
        <g id="Layer0_32_FILL" transform="matrix(1,0,0,1,425.653,251.5)">
            <path d="M114.55,138.6C115.85,138.067 117.2,137.733 118.6,137.6L116.7,130.35L109.7,137.25L114.55,138.6M106.75,141.95L107.35,140.9L97.85,140.9C100.05,141.933 102.317,142.383 104.65,142.25C105.35,142.183 106.05,142.083 106.75,141.95M101.75,134.1L103.85,128L96.35,128L101.75,134.1M88.45,132.45L82.65,130.5L83.9,136.5L88.45,132.45M127.55,133.05L121.75,131.1L123,137.1L127.55,133.05M68.35,129.7L73.25,138.2L78.15,129.7L68.35,129.7Z" style="fill:rgb(44,196,108);fill-rule:nonzero;"/>
            <path d="M64,139.9C64.267,140.067 64.533,140.233 64.8,140.4C69.4,142.967 74.317,142.883 79.55,140.15C79.683,140.083 79.833,140 80,139.9C83.133,137.933 86.4,137.2 89.8,137.7C91.8,138 93.867,138.733 96,139.9C96.6,140.267 97.217,140.6 97.85,140.9L107.35,140.9L106.75,141.95C107.617,141.75 108.483,141.483 109.35,141.15C110.217,140.817 111.1,140.4 112,139.9C112.833,139.367 113.683,138.933 114.55,138.6L109.7,137.25L116.7,130.35L118.6,137.6C120.367,137.433 122.183,137.633 124.05,138.2C125.35,138.6 126.667,139.167 128,139.9L128,128L103.85,128L101.75,134.1L96.35,128L64,128L64,139.9M73.25,138.2L68.35,129.7L78.15,129.7L73.25,138.2M121.75,131.1L127.55,133.05L123,137.1L121.75,131.1M82.65,130.5L88.45,132.45L83.9,136.5L82.65,130.5Z" style="fill:rgb(46,204,113);fill-rule:nonzero;"/>
            <path d="M68.65,147.3C67.05,146.933 65.5,146.267 64,145.3L64,192L128,192L128,145.3C127.333,144.933 126.667,144.6 126,144.3C124.433,143.667 122.917,143.25 121.45,143.05C119.75,142.85 118.1,142.95 116.5,143.35C114.967,143.717 113.467,144.367 112,145.3C111.9,145.367 111.817,145.417 111.75,145.45C108.883,146.983 106.117,147.733 103.45,147.7C102.75,147.667 102.05,147.583 101.35,147.45C101.083,147.417 100.833,147.367 100.6,147.3C100.433,147.233 100.283,147.183 100.15,147.15C98.717,146.75 97.333,146.133 96,145.3C95.733,145.167 95.467,145.033 95.2,144.9C94.7,144.633 94.2,144.4 93.7,144.2C91.6,143.333 89.55,142.933 87.55,143C86.55,143 85.583,143.117 84.65,143.35C84.217,143.417 83.783,143.533 83.35,143.7C82.717,143.9 82.1,144.15 81.5,144.45C81,144.717 80.5,145 80,145.3C78.6,146.067 77.2,146.667 75.8,147.1C75.533,147.167 75.25,147.233 74.95,147.3L74.85,147.3C74.817,147.3 74.783,147.317 74.75,147.35C72.65,147.783 70.617,147.767 68.65,147.3Z" style="fill:rgb(187,128,68);fill-rule:nonzero;"/>
            <path d="M64,143L64,145.3C65.5,146.267 67.05,146.933 68.65,147.3C70.617,147.767 72.65,147.783 74.75,147.35C74.783,147.317 74.817,147.3 74.85,147.3L74.95,147.3C75.25,147.233 75.533,147.167 75.8,147.1C77.2,146.667 78.6,146.067 80,145.3C80.5,145 81,144.717 81.5,144.45C82.1,144.15 82.717,143.9 83.35,143.7C83.783,143.533 84.217,143.417 84.65,143.35C85.583,143.117 86.55,143 87.55,143C89.55,142.933 91.6,143.333 93.7,144.2C94.2,144.4 94.7,144.633 95.2,144.9C95.467,145.033 95.733,145.167 96,145.3C97.333,146.133 98.717,146.75 100.15,147.15C100.283,147.183 100.433,147.233 100.6,147.3C100.833,147.367 101.083,147.417 101.35,147.45C102.05,147.583 102.75,147.667 103.45,147.7C106.117,147.733 108.883,146.983 111.75,145.45C111.817,145.417 111.9,145.367 112,145.3C113.467,144.367 114.967,143.717 116.5,143.35C118.1,142.95 119.75,142.85 121.45,143.05C122.917,143.25 124.433,143.667 126,144.3C126.667,144.6 127.333,144.933 128,145.3L128,143C127.5,142.833 127.017,142.683 126.55,142.55C124.683,142.017 122.867,141.717 121.1,141.65C117.933,141.45 114.9,141.9 112,143C109.733,143.767 107.517,144.233 105.35,144.4C103.283,144.533 101.283,144.4 99.35,144C98.217,143.767 97.1,143.433 96,143C93.233,142.067 90.567,141.6 88,141.6C87.4,141.6 86.8,141.617 86.2,141.65C84.733,141.75 83.317,142 81.95,142.4C81.35,142.567 80.75,142.75 80.15,142.95C80.083,142.95 80.033,142.967 80,143C79.1,143.3 78.217,143.55 77.35,143.75C75.75,144.117 74.183,144.333 72.65,144.4C70.817,144.467 69.033,144.333 67.3,144C66.7,143.867 66.117,143.717 65.55,143.55C65.017,143.383 64.5,143.2 64,143Z" style="fill:rgb(177,121,64);fill-rule:nonzero;"/>
            <path d="M64,139.9L64,143C64.5,143.2 65.017,143.383 65.55,143.55C66.117,143.717 66.7,143.867 67.3,144C69.033,144.333 70.817,144.467 72.65,144.4C74.183,144.333 75.75,144.117 77.35,143.75C78.217,143.55 79.1,143.3 80,143C80.033,142.967 80.083,142.95 80.15,142.95C80.75,142.75 81.35,142.567 81.95,142.4C83.317,142 84.733,141.75 86.2,141.65C86.8,141.617 87.4,141.6 88,141.6C90.567,141.6 93.233,142.067 96,143C97.1,143.433 98.217,143.767 99.35,144C101.283,144.4 103.283,144.533 105.35,144.4C107.517,144.233 109.733,143.767 112,143C114.9,141.9 117.933,141.45 121.1,141.65C122.867,141.717 124.683,142.017 126.55,142.55C127.017,142.683 127.5,142.833 128,143L128,139.9C126.667,139.167 125.35,138.6 124.05,138.2C122.183,137.633 120.367,137.433 118.6,137.6C117.2,137.733 115.85,138.067 114.55,138.6C113.683,138.933 112.833,139.367 112,139.9C111.1,140.4 110.217,140.817 109.35,141.15C108.483,141.483 107.617,141.75 106.75,141.95C106.05,142.083 105.35,142.183 104.65,142.25C102.317,142.383 100.05,141.933 97.85,140.9C97.217,140.6 96.6,140.267 96,139.9C93.867,138.733 91.8,138 89.8,137.7C86.4,137.2 83.133,137.933 80,139.9C79.833,140 79.683,140.083 79.55,140.15C74.317,142.883 69.4,142.967 64.8,140.4C64.533,140.233 64.267,140.067 64,139.9Z" style="fill:rgb(49,217,120);fill-rule:nonzero;"/>
        </g>
    </g>
</svg>
