<?xml version="1.0" encoding="UTF-8" standalone="no"?>
<!DOCTYPE svg PUBLIC "-//W3C//DTD SVG 1.1//EN" "http://www.w3.org/Graphics/SVG/1.1/DTD/svg11.dtd">
<svg width="100%" height="100%" viewBox="0 0 64 64" version="1.1" xmlns="http://www.w3.org/2000/svg" xmlns:xlink="http://www.w3.org/1999/xlink" xml:space="preserve" xmlns:serif="http://www.serif.com/" style="fill-rule:evenodd;clip-rule:evenodd;stroke-linejoin:round;stroke-miterlimit:2;">
    <g transform="matrix(1,0,0,1,-343,-362.53)">
        <g>
            <g transform="matrix(1.22288,0,0,0.946856,-15.2039,-116.725)">
                <path d="M334.622,527.362L334.622,546.453C334.622,547.032 327.986,554.438 327.982,554.431L327.853,563.38L310.236,563.444L310.322,554.429C310.3,554.44 303.548,547.116 303.548,546.538L303.557,527.362C303.557,526.783 303.95,526.313 304.435,526.313L333.744,526.313C334.229,526.313 334.622,526.783 334.622,527.362Z" style="fill:rgb(159,159,159);"/>
            </g>
            <g transform="matrix(1.0258,-2.46519e-32,-2.46519e-32,0.992331,109.28,-140.037)">
                <path d="M241.175,544.089L256.296,552.902L262.2,552.85L276.802,544.142L277.121,545.463L272.666,549.98L269.153,553.578L269.145,561.966L249.202,561.966L248.975,553.303L240.994,545.479L241.175,544.089Z" style="fill:rgb(147,147,147);"/>
            </g>
            <g transform="matrix(1.06695,0,0,1.3416,95.3921,-309.162)">
                <rect x="253.054" y="521.941" width="18.034" height="5.156" style="fill:rgb(147,147,147);"/>
            </g>
            <g transform="matrix(1.97702e-17,-0.312337,0.589518,3.49198e-17,61.2365,496.657)">
                <rect x="253.054" y="521.941" width="18.034" height="5.156" style="fill:rgb(140,140,140);"/>
            </g>
            <g transform="matrix(1.97702e-17,-0.312337,0.589518,3.49198e-17,70.3826,496.657)">
                <rect x="253.054" y="521.941" width="18.034" height="5.156" style="fill:rgb(140,140,140);"/>
            </g>
            <g transform="matrix(1.0258,0,0,0.992331,109.044,-140.525)">
                <path d="M241.617,534.909L250.494,526.179L241.225,526.234L241.617,534.909Z" style="fill:rgb(147,147,147);"/>
            </g>
            <g transform="matrix(-1.0258,0,0,0.992331,641,-140.525)">
                <path d="M241.617,534.909L250.494,526.179L241.225,526.234L241.617,534.909Z" style="fill:rgb(147,147,147);"/>
            </g>
            <g transform="matrix(1.0258,0,0,0.748854,106.156,-15.2465)">
                <path d="M273.087,517.514L273.087,529.463C273.087,529.739 272.924,529.964 272.722,529.964L251.512,529.964C251.311,529.964 251.147,529.739 251.147,529.463L251.147,517.514C251.147,517.237 251.311,517.013 251.512,517.013L272.722,517.013C272.924,517.013 273.087,517.237 273.087,517.514Z" style="fill:rgb(203,203,203);"/>
                <path d="M273.087,517.514L273.087,529.463C273.087,529.739 272.924,529.964 272.722,529.964L251.512,529.964C251.311,529.964 251.147,529.739 251.147,529.463L251.147,517.514C251.147,517.237 251.311,517.013 251.512,517.013L272.722,517.013C272.924,517.013 273.087,517.237 273.087,517.514ZM252.707,519.15L252.707,527.827L271.527,527.827L271.527,519.15L252.707,519.15Z" style="fill:rgb(159,159,159);"/>
            </g>
            <g transform="matrix(1.07007,0,0,0.848003,94.6033,-65.3611)">
                <rect x="253.054" y="521.941" width="18.034" height="5.156" style="fill:rgb(182,182,182);"/>
            </g>
            <g transform="matrix(1.22288,0,0,0.991234,-15.2039,-140.584)">
                <path d="M328.589,553.755C328.214,554.176 327.983,554.432 327.982,554.431L327.853,563.38L310.236,563.444L310.322,554.429C310.3,554.44 303.548,547.116 303.548,546.538L303.557,527.362C303.557,526.783 303.95,526.313 304.435,526.313L333.744,526.313C334.229,526.313 334.622,526.783 334.622,527.362L334.622,546.453C334.622,546.924 330.229,551.915 328.589,553.755C328.473,553.594 328.315,553.468 328.091,553.431C328.279,553.462 328.457,553.575 328.589,553.755ZM304.366,546.255C305.312,547.651 309.69,552.426 310.662,553.463L310.82,553.629C311.023,553.822 311.143,554.122 311.14,554.441L311.063,562.432L327.05,562.374L327.164,554.413C327.168,554.116 327.278,553.844 327.454,553.66L327.621,553.475C328.568,552.423 332.881,547.58 333.805,546.177L333.805,527.362C333.805,527.329 333.771,527.322 333.744,527.322L304.435,527.322C304.408,527.322 304.374,527.33 304.374,527.362L304.366,546.255Z" style="fill:rgb(114,114,114);"/>
            </g>
        </g>
    </g>
</svg>
