<?xml version="1.0" encoding="UTF-8" standalone="no"?>
<!DOCTYPE svg PUBLIC "-//W3C//DTD SVG 1.1//EN" "http://www.w3.org/Graphics/SVG/1.1/DTD/svg11.dtd">
<svg width="100%" height="100%" viewBox="0 0 64 64" version="1.1" xmlns="http://www.w3.org/2000/svg" xmlns:xlink="http://www.w3.org/1999/xlink" xml:space="preserve" xmlns:serif="http://www.serif.com/" style="fill-rule:evenodd;clip-rule:evenodd;stroke-linejoin:round;stroke-miterlimit:2;">
    <g transform="matrix(1,0,0,1,-24.4906,-229.363)">
        <g id="Layer0_258_FILL" transform="matrix(0.842105,0,0,0.842105,-1048.35,-255.268)">
            <path d="M1330.45,593.6C1330.05,593.2 1329.62,593 1329.15,593L1295,593C1294.43,593 1293.97,593.2 1293.6,593.6C1293.2,593.967 1293,594.433 1293,595L1293,618C1293,618.567 1293.2,619.05 1293.6,619.45L1301,626.85L1301,632C1301,632.567 1301.2,633.05 1301.6,633.45C1301.97,633.817 1302.43,634 1303,634L1321,634C1321.57,634 1322.05,633.817 1322.45,633.45C1322.82,633.05 1323,632.567 1323,632L1323,626.85L1330.45,619.45C1330.82,619.05 1331,618.567 1331,618L1331,595C1331,594.433 1330.82,593.967 1330.45,593.6M1329,595L1329,618L1321,626L1321,632L1303,632L1303,626L1295,618L1295,595L1329,595Z" style="fill:rgb(114,114,114);fill-rule:nonzero;"/>
            <path d="M1303,626L1303,632L1321,632L1321,626L1303,626M1329,607L1329,603L1295,603L1295,607L1329,607M1329,615L1329,611L1295,611L1295,615L1329,615Z" style="fill:rgb(147,147,147);fill-rule:nonzero;"/>
            <path d="M1329,603L1329,595L1295,595L1295,603L1329,603M1329,618L1329,615L1295,615L1295,618L1303,626L1321,626L1329,618M1329,611L1329,607L1295,607L1295,611L1329,611Z" style="fill:rgb(159,159,159);fill-rule:nonzero;"/>
        </g>
    </g>
</svg>
