<?xml version="1.0" encoding="UTF-8" standalone="no"?>
<!DOCTYPE svg PUBLIC "-//W3C//DTD SVG 1.1//EN" "http://www.w3.org/Graphics/SVG/1.1/DTD/svg11.dtd">
<svg width="100%" height="100%" viewBox="0 0 64 64" version="1.1" xmlns="http://www.w3.org/2000/svg" xmlns:xlink="http://www.w3.org/1999/xlink" xml:space="preserve" xmlns:serif="http://www.serif.com/" style="fill-rule:evenodd;clip-rule:evenodd;stroke-linejoin:round;stroke-miterlimit:2;">
    <g transform="matrix(1,0,0,1,-9.33824,-244.253)">
        <g transform="matrix(1,0,0,1,-2.40876,12.8338)">
            <g transform="matrix(1.02074,0,0,1.17409,-27.4186,-129.824)">
                <path d="M87.347,321.374L87.347,341.25C87.347,341.25 77.942,350.081 77.939,350.081L61.53,350.107C60.407,349.131 52.061,341.215 52.061,341.215L51.97,321.374C51.97,320.505 52.781,319.8 53.781,319.8L85.536,319.8C86.536,319.8 87.347,320.505 87.347,321.374Z" style="fill:rgb(147,147,147);"/>
                <path d="M87.347,321.374L87.347,341.25C87.347,341.25 77.942,350.081 77.939,350.081L61.53,350.107C60.407,349.131 52.061,341.215 52.061,341.215L51.97,321.374C51.97,320.505 52.781,319.8 53.781,319.8L85.536,319.8C86.536,319.8 87.347,320.505 87.347,321.374ZM77.254,348.72L85.78,340.716L85.78,321.374C85.78,321.258 85.67,321.163 85.536,321.163L53.781,321.163C53.647,321.163 53.538,321.257 53.537,321.374L53.626,340.682C55.142,342.119 60.44,347.137 62.194,348.744L77.254,348.72Z" style="fill:rgb(114,114,114);"/>
            </g>
            <g transform="matrix(0.974425,0,0,0.998539,-24.2892,-73.6709)">
                <rect x="61.895" y="321.382" width="15.854" height="32.403" style="fill:rgb(159,159,159);"/>
            </g>
        </g>
    </g>
</svg>
