<?xml version="1.0" encoding="UTF-8" standalone="no"?>
<!DOCTYPE svg PUBLIC "-//W3C//DTD SVG 1.1//EN" "http://www.w3.org/Graphics/SVG/1.1/DTD/svg11.dtd">
<svg width="100%" height="100%" viewBox="0 0 64 64" version="1.1" xmlns="http://www.w3.org/2000/svg" xmlns:xlink="http://www.w3.org/1999/xlink" xml:space="preserve" xmlns:serif="http://www.serif.com/" style="fill-rule:evenodd;clip-rule:evenodd;stroke-linejoin:round;stroke-miterlimit:2;">
    <g transform="matrix(1,0,0,1,-284.11,-304.961)">
        <g id="Layer0_262_FILL" transform="matrix(0.761905,0,0,0.761905,-634.747,-175.801)">
            <g>
                <path d="M1248,698L1259,698L1267,690L1248,698M1237,698L1248,698L1229,690L1237,698M1267,677L1267,673L1263,673L1267,677M1233,673L1229,673L1229,677L1233,673Z" style="fill:rgb(45,121,225);fill-rule:nonzero;"/>
                <rect x="1235" y="669" width="26" height="4" style="fill:rgb(147,147,147);fill-rule:nonzero;"/>
                <path d="M1233,673L1233,671L1229,671C1228.43,671 1227.97,671.2 1227.6,671.6C1227.2,671.967 1227,672.433 1227,673L1227,690C1227,690.567 1227.2,691.05 1227.6,691.45L1235.6,699.45C1235.97,699.817 1236.43,700 1237,700L1259,700C1259.57,700 1260.05,699.817 1260.45,699.45L1268.45,691.45C1268.82,691.05 1269,690.567 1269,690L1269,673C1269,672.433 1268.82,671.967 1268.45,671.6C1268.05,671.2 1267.57,671 1267,671L1263,671L1263,673L1267,673L1267,690L1259,698L1237,698L1229,690L1229,673L1233,673Z" style="fill:rgb(33,61,152);fill-rule:nonzero;"/>
                <path d="M1263,673L1233,673L1229,677L1229,690L1248,698L1267,690L1267,677L1263,673Z" style="fill:rgb(0,155,255);fill-rule:nonzero;"/>
                <g transform="matrix(1,0,0,0.663729,0,224.965)">
                    <path d="M1245.5,647L1243,647L1243,669L1245.5,669L1245.5,647M1253,647L1250.5,647L1250.5,669L1253,669L1253,647Z" style="fill:rgb(159,159,159);fill-rule:nonzero;"/>
                </g>
                <g transform="matrix(1,0,0,0.663729,0,224.965)">
                    <rect x="1245.5" y="647" width="5" height="22" style="fill:rgb(173,173,173);fill-rule:nonzero;"/>
                </g>
                <g transform="matrix(1,0,0,0.664359,0,225.886)">
                    <path d="M1243,647L1253,647L1253,669L1261,669L1261,673L1263,673L1263,669C1263,668.433 1262.82,667.967 1262.45,667.6C1262.05,667.2 1261.57,667 1261,667L1255,667L1255,647C1255,646.433 1254.82,645.967 1254.45,645.6C1254.05,645.2 1253.57,645 1253,645L1243,645C1242.43,645 1241.97,645.2 1241.6,645.6C1241.2,645.967 1241,646.433 1241,647L1241,667L1235,667C1234.43,667 1233.97,667.2 1233.6,667.6C1233.2,667.967 1233,668.433 1233,669L1233,673L1235,673L1235,669L1243,669L1243,647Z" style="fill:rgb(114,114,114);fill-rule:nonzero;"/>
                </g>
            </g>
        </g>
    </g>
</svg>
