<?xml version="1.0" encoding="UTF-8" standalone="no"?>
<!DOCTYPE svg PUBLIC "-//W3C//DTD SVG 1.1//EN" "http://www.w3.org/Graphics/SVG/1.1/DTD/svg11.dtd">
<svg width="100%" height="100%" viewBox="0 0 64 64" version="1.1" xmlns="http://www.w3.org/2000/svg" xmlns:xlink="http://www.w3.org/1999/xlink" xml:space="preserve" xmlns:serif="http://www.serif.com/" style="fill-rule:evenodd;clip-rule:evenodd;stroke-linejoin:round;stroke-miterlimit:2;">
    <g transform="matrix(1,0,0,1,-291.438,-325.028)">
        <g transform="matrix(0.363636,0,0,0.363636,223.575,255.709)">
            <g transform="matrix(2,0,0,2,-2349.38,-1062.59)">
                <path d="M1314,646L1322,646L1322,663L1324,663L1324,667L1326,669L1326,663C1326,662.724 1325.96,662.471 1325.87,662.242C1325.78,662.002 1325.64,661.788 1325.45,661.6C1325.25,661.4 1325.03,661.25 1324.79,661.15C1324.55,661.05 1324.28,661 1324,661L1324,646C1324,645.724 1323.96,645.471 1323.87,645.242C1323.78,645.002 1323.64,644.788 1323.45,644.6C1323.25,644.4 1323.03,644.25 1322.79,644.15C1322.55,644.05 1322.28,644 1322,644L1314,644C1313.72,644 1313.46,644.049 1313.23,644.146C1313,644.246 1312.79,644.398 1312.6,644.6C1312.41,644.778 1312.26,644.973 1312.16,645.186C1312.06,645.405 1312,645.643 1312,645.9C1312,645.646 1311.95,645.411 1311.86,645.194C1311.77,644.978 1311.63,644.78 1311.45,644.6C1311.05,644.2 1310.57,644 1310,644L1302,644C1301.43,644 1300.97,644.2 1300.6,644.6C1300.2,644.967 1300,645.433 1300,646L1300,661C1299.43,661 1298.97,661.2 1298.6,661.6C1298.2,661.967 1298,662.433 1298,663L1298,669L1300,667L1300,663L1302,663L1302,646L1310,646L1310,663L1314,663L1314,646Z" style="fill:rgb(114,114,114);fill-rule:nonzero;"/>
            </g>
            <g transform="matrix(2,0,0,2.90363,-2337.38,-1653.9)">
                <path d="M1304.5,646L1302,646L1302,663L1304.5,663L1304.5,646M1310,646L1307.5,646L1307.5,663L1310,663L1310,646" style="fill:rgb(159,159,159);fill-rule:nonzero;"/>
            </g>
            <g transform="matrix(2.70412,0,0,2.67028,-3249.75,-1505.83)">
                <path d="M1304.5,646L1302,646L1302,663L1304.5,663L1304.5,646" style="fill:rgb(173,173,173);fill-rule:nonzero;"/>
            </g>
            <g id="Layer0_271_FILL" transform="matrix(2,0,0,2,-2349.38,-1062.8)">
                <path d="M1316,699L1324,699L1328,691L1316,699M1300,699L1308,699L1296,691L1300,699M1316,667L1308,667L1292,675L1292,691L1332,691L1332,675L1316,667Z" style="fill:rgb(231,76,60);fill-rule:nonzero;"/>
                <path d="M1328,691L1296,691L1308,699L1316,699L1328,691M1332,675L1324,667L1316,667L1332,675M1308,667L1300,667L1292,675L1308,667Z" style="fill:rgb(210,69,54);fill-rule:nonzero;"/>
                <path d="M1334,675C1334,674.433 1333.82,673.967 1333.45,673.6L1326,666.15L1326,669L1332,675L1332,691L1328,691L1324,699L1300,699L1296,691L1292,691L1292,675L1298,669L1298,666.15L1290.6,673.6C1290.2,673.967 1290,674.433 1290,675L1290,691C1290,691.567 1290.2,692.05 1290.6,692.45C1290.97,692.817 1291.43,693 1292,693L1294.75,693L1298.2,699.9C1298.37,700.233 1298.62,700.5 1298.95,700.7C1299.28,700.9 1299.63,701 1300,701L1324,701C1324.37,701 1324.72,700.9 1325.05,700.7C1325.38,700.5 1325.63,700.233 1325.8,699.9L1329.25,693L1332,693C1332.57,693 1333.05,692.817 1333.45,692.45C1333.82,692.05 1334,691.567 1334,691L1334,675Z" style="fill:rgb(175,57,45);fill-rule:nonzero;"/>
                <path d="M1307.5,663L1307.5,646L1304.5,646L1304.5,663L1307.5,663M1319.5,646L1316.5,646L1316.5,663L1319.5,663L1319.5,646Z" style="fill:rgb(173,173,173);fill-rule:nonzero;"/>
                <path d="M1304.5,646L1302,646L1302,663L1304.5,663L1304.5,646M1310,646L1307.5,646L1307.5,663L1310,663L1310,646M1316.5,663L1316.5,646L1314,646L1314,663L1316.5,663M1322,646L1319.5,646L1319.5,663L1322,663L1322,646Z" style="fill:rgb(159,159,159);fill-rule:nonzero;"/>
                <rect x="1300" y="663" width="24" height="4" style="fill:rgb(147,147,147);fill-rule:nonzero;"/>
            </g>
            <g transform="matrix(1,0,0,1.06297,-100.377,-91.8397)">
                <g transform="matrix(2,0,0,2,-2236.97,-996.466)">
                    <path d="M1312,645.9C1312,645.646 1311.95,645.411 1311.86,645.194C1311.77,644.978 1311.63,644.78 1311.45,644.6C1311.05,644.2 1310.57,644 1310,644L1302,644C1301.43,644 1300.97,644.2 1300.6,644.6C1300.2,644.967 1300,645.433 1300,646L1300,661C1299.43,661 1298.97,661.2 1298.6,661.6C1298.2,661.967 1298,662.433 1298,663L1298,669L1300,667L1300,663L1302,663L1302,646L1310,646L1310,663L1311.99,663" style="fill:rgb(114,114,114);fill-rule:nonzero;"/>
                </g>
                <g transform="matrix(2,0,0,2,-2261.03,-996.466)">
                    <path d="M1311.99,663L1314,663L1314,646L1322,646L1322,663L1324,663L1324,667L1326,669L1326,663C1326,662.724 1325.96,662.471 1325.87,662.242C1325.78,662.002 1325.64,661.788 1325.45,661.6C1325.25,661.4 1325.03,661.25 1324.79,661.15C1324.55,661.05 1324.28,661 1324,661L1324,646C1324,645.724 1323.96,645.471 1323.87,645.242C1323.78,645.002 1323.64,644.788 1323.45,644.6C1323.25,644.4 1323.03,644.25 1322.79,644.15C1322.55,644.05 1322.28,644 1322,644L1314,644C1313.72,644 1313.46,644.049 1313.23,644.146C1313,644.246 1312.79,644.398 1312.6,644.6C1312.41,644.778 1312.26,644.973 1312.16,645.186C1312.06,645.405 1312,645.643 1312,645.9" style="fill:rgb(114,114,114);fill-rule:nonzero;"/>
                </g>
            </g>
        </g>
    </g>
</svg>
