<?xml version="1.0" encoding="UTF-8" standalone="no"?>
<!DOCTYPE svg PUBLIC "-//W3C//DTD SVG 1.1//EN" "http://www.w3.org/Graphics/SVG/1.1/DTD/svg11.dtd">
<svg width="100%" height="100%" viewBox="0 0 6 17" version="1.1" xmlns="http://www.w3.org/2000/svg" xmlns:xlink="http://www.w3.org/1999/xlink" xml:space="preserve" xmlns:serif="http://www.serif.com/" style="fill-rule:evenodd;clip-rule:evenodd;stroke-linejoin:round;stroke-miterlimit:2;">
    <g transform="matrix(1,0,0,1,-425.408,-216.979)">
        <g id="Layer0_260_FILL" transform="matrix(0.475113,0,0,0.475113,-225.497,-94.2323)">
            <path d="M1374.55,685.95L1374.4,683.95L1374.4,683.8L1373.9,676.7C1373.17,678.7 1372.53,681.267 1372,684.4L1374.55,685.95M1376.3,657C1374.4,659 1373.37,662.167 1373.2,666.5L1379.4,666.5C1379.23,662.167 1378.2,659 1376.3,657M1378.05,685.95L1380.6,684.4C1380.07,681.267 1379.43,678.7 1378.7,676.7L1378.2,683.8L1378.2,683.95L1378.05,685.95Z" style="fill:rgb(231,76,60);fill-rule:nonzero;"/>
            <path d="M1373.9,676.7L1371.9,676.45C1371.17,678.483 1370.55,681.033 1370.05,684.1C1369.95,684.467 1370,684.85 1370.2,685.25C1370.37,685.617 1370.62,685.9 1370.95,686.1L1372.65,687.15L1374.55,685.95L1372,684.4C1372.53,681.267 1373.17,678.7 1373.9,676.7M1380.75,676.45L1378.7,676.7C1379.43,678.7 1380.07,681.267 1380.6,684.4L1378.05,685.95L1380,687.15L1381.65,686.1C1381.98,685.9 1382.25,685.617 1382.45,685.25C1382.62,684.85 1382.67,684.467 1382.6,684.1C1382.07,681.033 1381.45,678.483 1380.75,676.45M1379.4,666.5L1381.4,666.5L1381.4,666.45C1381.2,661.483 1379.98,657.883 1377.75,655.65C1377.48,655.35 1377.18,655.167 1376.85,655.1C1376.48,655 1376.13,655 1375.8,655.1C1375.43,655.167 1375.12,655.35 1374.85,655.65C1372.62,657.883 1371.4,661.483 1371.2,666.45L1371.2,666.5L1373.2,666.5C1373.37,662.167 1374.4,659 1376.3,657C1378.2,659 1379.23,662.167 1379.4,666.5Z" style="fill:rgb(175,57,45);fill-rule:nonzero;"/>
            <path d="M1371.2,666.5L1371.2,666.65L1371.9,676.45L1373.9,676.7L1373.2,666.5L1371.2,666.5M1377.95,689.5C1378.48,689.5 1378.95,689.317 1379.35,688.95C1379.72,688.583 1379.92,688.15 1379.95,687.65L1380,687.15L1378.05,685.95L1377.95,687.5L1374.65,687.5L1374.55,685.95L1372.65,687.15L1372.65,687.65C1372.68,688.15 1372.9,688.583 1373.3,688.95C1373.67,689.317 1374.12,689.5 1374.65,689.5L1377.95,689.5M1381.4,666.5L1379.4,666.5L1378.7,676.7L1380.75,676.45L1381.4,666.65L1381.4,666.5Z" style="fill:rgb(128,147,149);fill-rule:nonzero;"/>
            <path d="M1378.2,683.95L1378.2,683.8L1378.7,676.7L1379.4,666.5L1373.2,666.5L1373.9,676.7L1374.4,683.8L1374.4,683.95L1374.55,685.95L1374.65,687.5L1377.95,687.5L1378.05,685.95L1378.2,683.95Z" style="fill:rgb(189,214,219);fill-rule:nonzero;"/>
        </g>
    </g>
</svg>
