<?xml version="1.0" encoding="UTF-8" standalone="no"?>
<!DOCTYPE svg PUBLIC "-//W3C//DTD SVG 1.1//EN" "http://www.w3.org/Graphics/SVG/1.1/DTD/svg11.dtd">
<svg width="100%" height="100%" viewBox="0 0 64 64" version="1.1" xmlns="http://www.w3.org/2000/svg" xmlns:xlink="http://www.w3.org/1999/xlink" xml:space="preserve" xmlns:serif="http://www.serif.com/" style="fill-rule:evenodd;clip-rule:evenodd;stroke-linejoin:round;stroke-miterlimit:2;">
    <g transform="matrix(1,0,0,1,-96.0598,-244.253)">
        <g transform="matrix(1,0,0,1,0.658965,43.872)">
            <g transform="matrix(1.31387,0,0,1.17409,35.8788,-160.894)">
                <path d="M87.347,321.374L87.347,341.25C87.347,341.25 79.619,350.121 79.616,350.121L59.704,350.106C58.581,349.13 52.061,341.215 52.061,341.215L51.97,321.374C51.97,320.505 52.781,319.8 53.781,319.8L85.536,319.8C86.536,319.8 87.347,320.505 87.347,321.374Z" style="fill:rgb(147,147,147);"/>
                <path d="M87.347,321.374L87.347,341.25C87.347,341.25 79.619,350.121 79.616,350.121L59.704,350.106C58.581,349.13 52.061,341.215 52.061,341.215L51.97,321.374C51.97,320.505 52.781,319.8 53.781,319.8L85.536,319.8C86.536,319.8 87.347,320.505 87.347,321.374ZM53.188,321.407L53.276,340.679C54.481,342.14 58.745,347.292 60.155,348.744L79.104,348.758C80.403,347.268 84.852,342.162 86.129,340.695L86.129,321.407C86.11,321.385 86.048,321.317 86.003,321.288C85.872,321.205 85.71,321.163 85.536,321.163L53.781,321.163C53.607,321.163 53.445,321.205 53.314,321.288C53.269,321.317 53.207,321.385 53.188,321.407Z" style="fill:rgb(114,114,114);"/>
            </g>
            <g transform="matrix(1.56822,0,0,0.998539,17.8888,-104.709)">
                <rect x="61.895" y="321.382" width="15.854" height="32.403" style="fill:rgb(159,159,159);"/>
            </g>
        </g>
    </g>
</svg>
